Nobel-Bold.ufo
<glyph name="exclam" format="1">
  <advance width="306"/>
  <unicode hex="0021"/>
  <outline>
    <contour>
      <point x="231" y="461" type="line"/>
      <point x="208" y="200" type="line"/>
      <point x="98" y="200" type="line"/>
      <point x="75" y="461" type="line"/>
      <point x="75" y="730" type="line"/>
      <point x="231" y="730" type="line"/>
    </contour>
    <contour>
      <point x="231" y="0" type="line"/>
      <point x="75" y="0" type="line"/>
      <point x="75" y="146" type="line"/>
      <point x="231" y="146" type="line"/>
    </contour>
  </outline>
</glyph>
<glyph name="quotedbl" format="1">
  <advance width="450"/>
  <unicode hex="0022"/>
  <outline>
    <contour>
      <point x="400" y="583" type="line"/>
      <point x="373" y="443" type="line"/>
      <point x="283" y="443" type="line"/>
      <point x="256" y="583" type="line"/>
      <point x="256" y="730" type="line"/>
      <point x="400" y="730" type="line"/>
    </contour>
    <contour>
      <point x="194" y="583" type="line"/>
      <point x="167" y="443" type="line"/>
      <point x="77" y="443" type="line"/>
      <point x="50" y="583" type="line"/>
      <point x="50" y="730" type="line"/>
      <point x="194" y="730" type="line"/>
    </contour>
  </outline>
</glyph>
<glyph name="numbersign" format="1">
  <advance width="686"/>
  <unicode hex="0023"/>
  <outline>
    <contour>
      <point x="626" y="187" type="line"/>
      <point x="509" y="187" type="line"/>
      <point x="493" y="0" type="line"/>
      <point x="368" y="0" type="line"/>
      <point x="384" y="187" type="line"/>
      <point x="270" y="187" type="line"/>
      <point x="254" y="0" type="line"/>
      <point x="129" y="0" type="line"/>
      <point x="145" y="187" type="line"/>
      <point x="60" y="187" type="line"/>
      <point x="60" y="298" type="line"/>
      <point x="155" y="298" type="line"/>
      <point x="167" y="435" type="line"/>
      <point x="60" y="435" type="line"/>
      <point x="60" y="546" type="line"/>
      <point x="177" y="546" type="line"/>
      <point x="193" y="730" type="line"/>
      <point x="318" y="730" type="line"/>
      <point x="302" y="546" type="line"/>
      <point x="416" y="546" type="line"/>
      <point x="432" y="730" type="line"/>
      <point x="557" y="730" type="line"/>
      <point x="541" y="546" type="line"/>
      <point x="626" y="546" type="line"/>
      <point x="626" y="435" type="line"/>
      <point x="531" y="435" type="line"/>
      <point x="519" y="298" type="line"/>
      <point x="626" y="298" type="line"/>
    </contour>
    <contour>
      <point x="406" y="435" type="line"/>
      <point x="292" y="435" type="line"/>
      <point x="280" y="298" type="line"/>
      <point x="394" y="298" type="line"/>
    </contour>
  </outline>
</glyph>
<glyph name="dollar" format="1">
  <advance width="687"/>
  <unicode hex="0024"/>
  <outline>
    <contour>
      <point x="650" y="216" type="curve" smooth="yes"/>
      <point x="650" y="76"/>
      <point x="525" y="11"/>
      <point x="391" y="0" type="curve"/>
      <point x="391" y="-100" type="line"/>
      <point x="305" y="-100" type="line"/>
      <point x="305" y="0" type="line"/>
      <point x="198" y="9"/>
      <point x="112" y="52"/>
      <point x="32" y="133" type="curve"/>
      <point x="129" y="227" type="line"/>
      <point x="170" y="185"/>
      <point x="234" y="144"/>
      <point x="305" y="132" type="curve"/>
      <point x="305" y="315" type="line"/>
      <point x="176" y="340"/>
      <point x="55" y="388"/>
      <point x="55" y="528" type="curve" smooth="yes"/>
      <point x="55" y="649"/>
      <point x="163" y="719"/>
      <point x="305" y="730" type="curve"/>
      <point x="305" y="800" type="line"/>
      <point x="391" y="800" type="line"/>
      <point x="391" y="730" type="line"/>
      <point x="494" y="719"/>
      <point x="569" y="669"/>
      <point x="632" y="616" type="curve"/>
      <point x="540" y="520" type="line"/>
      <point x="504" y="557"/>
      <point x="448" y="587"/>
      <point x="391" y="598" type="curve"/>
      <point x="391" y="442" type="line"/>
      <point x="525" y="413"/>
      <point x="650" y="366"/>
    </contour>
    <contour>
      <point x="305" y="461" type="curve"/>
      <point x="305" y="600" type="line"/>
      <point x="234" y="593"/>
      <point x="205" y="568"/>
      <point x="205" y="528" type="curve" smooth="yes"/>
      <point x="205" y="493"/>
      <point x="247" y="475"/>
    </contour>
    <contour>
      <point x="500" y="206" type="curve" smooth="yes"/>
      <point x="500" y="254"/>
      <point x="466" y="278"/>
      <point x="391" y="297" type="curve"/>
      <point x="391" y="130" type="line"/>
      <point x="444" y="137"/>
      <point x="500" y="156"/>
    </contour>
  </outline>
</glyph>
<glyph name="percent" format="1">
  <advance width="770"/>
  <unicode hex="0025"/>
  <outline>
    <contour>
      <point x="341" y="556" type="curve" smooth="yes"/>
      <point x="341" y="448"/>
      <point x="276" y="365"/>
      <point x="187" y="365" type="curve" smooth="yes"/>
      <point x="116" y="365"/>
      <point x="37" y="427"/>
      <point x="37" y="553" type="curve" smooth="yes"/>
      <point x="37" y="660"/>
      <point x="102" y="742"/>
      <point x="190" y="742" type="curve" smooth="yes"/>
      <point x="281" y="742"/>
      <point x="341" y="657"/>
    </contour>
    <contour>
      <point x="705" y="730" type="line"/>
      <point x="206" y="0" type="line"/>
      <point x="65" y="0" type="line"/>
      <point x="564" y="730" type="line"/>
    </contour>
    <contour>
      <point x="740" y="179" type="curve" smooth="yes"/>
      <point x="740" y="71"/>
      <point x="675" y="-12"/>
      <point x="586" y="-12" type="curve" smooth="yes"/>
      <point x="515" y="-12"/>
      <point x="436" y="50"/>
      <point x="436" y="176" type="curve" smooth="yes"/>
      <point x="436" y="283"/>
      <point x="501" y="365"/>
      <point x="589" y="365" type="curve" smooth="yes"/>
      <point x="680" y="365"/>
      <point x="740" y="280"/>
    </contour>
    <contour>
      <point x="237" y="553" type="curve" smooth="yes"/>
      <point x="237" y="602"/>
      <point x="226" y="654"/>
      <point x="189" y="654" type="curve" smooth="yes"/>
      <point x="152" y="654"/>
      <point x="140" y="605"/>
      <point x="140" y="553" type="curve" smooth="yes"/>
      <point x="140" y="502"/>
      <point x="150" y="453"/>
      <point x="187" y="453" type="curve" smooth="yes"/>
      <point x="227" y="453"/>
      <point x="237" y="503"/>
    </contour>
    <contour>
      <point x="636" y="176" type="curve" smooth="yes"/>
      <point x="636" y="225"/>
      <point x="625" y="277"/>
      <point x="588" y="277" type="curve" smooth="yes"/>
      <point x="551" y="277"/>
      <point x="539" y="228"/>
      <point x="539" y="176" type="curve" smooth="yes"/>
      <point x="539" y="125"/>
      <point x="549" y="76"/>
      <point x="586" y="76" type="curve" smooth="yes"/>
      <point x="626" y="76"/>
      <point x="636" y="126"/>
    </contour>
  </outline>
</glyph>
<glyph name="ampersand" format="1">
  <advance width="690"/>
  <unicode hex="0026"/>
  <outline>
    <contour>
      <point x="668" y="0" type="line"/>
      <point x="496" y="0" type="line"/>
      <point x="462" y="42" type="line"/>
      <point x="408" y="10"/>
      <point x="346" y="-12"/>
      <point x="278" y="-12" type="curve" smooth="yes"/>
      <point x="150" y="-12"/>
      <point x="22" y="78"/>
      <point x="22" y="208" type="curve" smooth="yes"/>
      <point x="22" y="306"/>
      <point x="90" y="367"/>
      <point x="163" y="415" type="curve"/>
      <point x="121" y="466"/>
      <point x="88" y="504"/>
      <point x="88" y="572" type="curve" smooth="yes"/>
      <point x="88" y="674"/>
      <point x="183" y="742"/>
      <point x="284" y="742" type="curve" smooth="yes"/>
      <point x="387" y="742"/>
      <point x="483" y="671"/>
      <point x="483" y="568" type="curve" smooth="yes"/>
      <point x="483" y="486"/>
      <point x="421" y="438"/>
      <point x="352" y="395" type="curve"/>
      <point x="487" y="226" type="line"/>
      <point x="517" y="256"/>
      <point x="544" y="287"/>
      <point x="567" y="314" type="curve"/>
      <point x="655" y="215" type="line"/>
      <point x="632" y="187"/>
      <point x="603" y="155"/>
      <point x="569" y="123" type="curve"/>
    </contour>
    <contour>
      <point x="348" y="574" type="curve" smooth="yes"/>
      <point x="348" y="608"/>
      <point x="320" y="631"/>
      <point x="286" y="631" type="curve" smooth="yes"/>
      <point x="255" y="631"/>
      <point x="228" y="602"/>
      <point x="228" y="572" type="curve" smooth="yes"/>
      <point x="228" y="548"/>
      <point x="254" y="518"/>
      <point x="279" y="487" type="curve"/>
      <point x="319" y="513"/>
      <point x="348" y="540"/>
    </contour>
    <contour>
      <point x="383" y="141" type="curve"/>
      <point x="238" y="322" type="line"/>
      <point x="202" y="293"/>
      <point x="176" y="260"/>
      <point x="176" y="216" type="curve" smooth="yes"/>
      <point x="176" y="153"/>
      <point x="238" y="113"/>
      <point x="298" y="113" type="curve" smooth="yes"/>
      <point x="326" y="113"/>
      <point x="355" y="124"/>
    </contour>
  </outline>
</glyph>
<glyph name="quotesingle" format="1">
  <advance width="250"/>
  <unicode hex="0027"/>
  <outline>
    <contour>
      <point x="194" y="583" type="line"/>
      <point x="167" y="443" type="line"/>
      <point x="77" y="443" type="line"/>
      <point x="50" y="583" type="line"/>
      <point x="50" y="730" type="line"/>
      <point x="194" y="730" type="line"/>
    </contour>
  </outline>
</glyph>
<glyph name="parenleft" format="1">
  <advance width="362"/>
  <unicode hex="0028"/>
  <outline>
    <contour>
      <point x="330" y="-179" type="line"/>
      <point x="143" y="-88"/>
      <point x="40" y="75"/>
      <point x="40" y="291" type="curve" smooth="yes"/>
      <point x="40" y="500"/>
      <point x="174" y="674"/>
      <point x="330" y="742" type="curve"/>
      <point x="330" y="609" type="line"/>
      <point x="254" y="524"/>
      <point x="214" y="431"/>
      <point x="214" y="291" type="curve" smooth="yes"/>
      <point x="214" y="152"/>
      <point x="246" y="53"/>
      <point x="330" y="-45" type="curve"/>
    </contour>
  </outline>
</glyph>
<glyph name="parenright" format="1">
  <advance width="362"/>
  <unicode hex="0029"/>
  <outline>
    <contour>
      <point x="322" y="291" type="curve" smooth="yes"/>
      <point x="322" y="75"/>
      <point x="219" y="-88"/>
      <point x="32" y="-179" type="curve"/>
      <point x="32" y="-45" type="line"/>
      <point x="116" y="53"/>
      <point x="148" y="152"/>
      <point x="148" y="291" type="curve" smooth="yes"/>
      <point x="148" y="431"/>
      <point x="108" y="524"/>
      <point x="32" y="609" type="curve"/>
      <point x="32" y="742" type="line"/>
      <point x="188" y="674"/>
      <point x="322" y="500"/>
    </contour>
  </outline>
</glyph>
<glyph name="asterisk" format="1">
  <advance width="426"/>
  <unicode hex="002A"/>
  <outline>
    <contour>
      <point x="401" y="572" type="line"/>
      <point x="295" y="516" type="line"/>
      <point x="347" y="411" type="line"/>
      <point x="297" y="373" type="line"/>
      <point x="212" y="457" type="line"/>
      <point x="128" y="374" type="line"/>
      <point x="77" y="410" type="line"/>
      <point x="130" y="517" type="line"/>
      <point x="25" y="571" type="line"/>
      <point x="44" y="631" type="line"/>
      <point x="162" y="613" type="line"/>
      <point x="181" y="730" type="line"/>
      <point x="243" y="730" type="line"/>
      <point x="261" y="613" type="line"/>
      <point x="379" y="631" type="line"/>
    </contour>
  </outline>
</glyph>
<glyph name="plus" format="1">
  <advance width="542"/>
  <unicode hex="002B"/>
  <outline>
    <contour>
      <point x="507" y="266" type="line"/>
      <point x="338" y="266" type="line"/>
      <point x="338" y="105" type="line"/>
      <point x="204" y="105" type="line"/>
      <point x="204" y="266" type="line"/>
      <point x="35" y="266" type="line"/>
      <point x="35" y="396" type="line"/>
      <point x="204" y="396" type="line"/>
      <point x="204" y="557" type="line"/>
      <point x="338" y="557" type="line"/>
      <point x="338" y="396" type="line"/>
      <point x="507" y="396" type="line"/>
    </contour>
  </outline>
</glyph>
<glyph name="comma" format="1">
  <advance width="250"/>
  <unicode hex="002C"/>
  <outline>
    <contour>
      <point x="194" y="37" type="line" smooth="yes"/>
      <point x="194" y="-37"/>
      <point x="158" y="-100"/>
      <point x="114" y="-160" type="curve"/>
      <point x="19" y="-104" type="line"/>
      <point x="39" y="-74"/>
      <point x="50" y="-30"/>
      <point x="50" y="12" type="curve" smooth="yes"/>
      <point x="50" y="151" type="line"/>
      <point x="194" y="151" type="line"/>
    </contour>
  </outline>
</glyph>
<glyph name="hyphen" format="1">
  <advance width="380"/>
  <unicode hex="002D"/>
  <unicode hex="2010"/>
  <unicode hex="2011"/>
  <outline>
    <contour>
      <point x="340" y="204" type="line"/>
      <point x="40" y="204" type="line"/>
      <point x="40" y="336" type="line"/>
      <point x="340" y="336" type="line"/>
    </contour>
  </outline>
</glyph>
<glyph name="slash" format="1">
  <advance width="444"/>
  <unicode hex="002F"/>
  <outline>
    <contour>
      <point x="424" y="730" type="line"/>
      <point x="171" y="0" type="line"/>
      <point x="20" y="0" type="line"/>
      <point x="274" y="730" type="line"/>
    </contour>
  </outline>
</glyph>
<glyph name="zero" format="1">
  <advance width="643"/>
  <unicode hex="0030"/>
  <outline>
    <contour>
      <point x="611" y="368" type="curve" smooth="yes"/>
      <point x="611" y="147"/>
      <point x="502" y="-12"/>
      <point x="318" y="-12" type="curve" smooth="yes"/>
      <point x="134" y="-12"/>
      <point x="26" y="147"/>
      <point x="26" y="368" type="curve" smooth="yes"/>
      <point x="26" y="582"/>
      <point x="134" y="742"/>
      <point x="318" y="742" type="curve" smooth="yes"/>
      <point x="502" y="742"/>
      <point x="611" y="582"/>
    </contour>
    <contour>
      <point x="445" y="368" type="curve" smooth="yes"/>
      <point x="445" y="475"/>
      <point x="420" y="607"/>
      <point x="318" y="607" type="curve" smooth="yes"/>
      <point x="212" y="607"/>
      <point x="192" y="474"/>
      <point x="192" y="368" type="curve" smooth="yes"/>
      <point x="192" y="262"/>
      <point x="216" y="123"/>
      <point x="318" y="123" type="curve" smooth="yes"/>
      <point x="425" y="123"/>
      <point x="445" y="261"/>
    </contour>
  </outline>
</glyph>
<glyph name="one" format="1">
  <advance width="400"/>
  <unicode hex="0031"/>
  <outline>
    <contour>
      <point x="332" y="0" type="line"/>
      <point x="172" y="0" type="line"/>
      <point x="172" y="520" type="line"/>
      <point x="137" y="485"/>
      <point x="82" y="470"/>
      <point x="20" y="465" type="curve"/>
      <point x="20" y="583" type="line"/>
      <point x="104" y="594"/>
      <point x="166" y="622"/>
      <point x="215" y="730" type="curve"/>
      <point x="332" y="730" type="line"/>
    </contour>
  </outline>
</glyph>
<glyph name="two" format="1">
  <advance width="580"/>
  <unicode hex="0032"/>
  <outline>
    <contour>
      <point x="533" y="531" type="curve" smooth="yes"/>
      <point x="533" y="456"/>
      <point x="503" y="406"/>
      <point x="464" y="355" type="curve" smooth="yes"/>
      <point x="295" y="135" type="line"/>
      <point x="527" y="135" type="line"/>
      <point x="527" y="0" type="line"/>
      <point x="23" y="0" type="line"/>
      <point x="330" y="415" type="line" smooth="yes"/>
      <point x="360" y="455"/>
      <point x="373" y="481"/>
      <point x="373" y="531" type="curve" smooth="yes"/>
      <point x="373" y="575"/>
      <point x="343" y="612"/>
      <point x="295" y="612" type="curve" smooth="yes"/>
      <point x="243" y="612"/>
      <point x="193" y="592"/>
      <point x="193" y="510" type="curve" smooth="yes"/>
      <point x="193" y="494" type="line"/>
      <point x="43" y="494" type="line"/>
      <point x="43" y="510" type="line" smooth="yes"/>
      <point x="43" y="667"/>
      <point x="165" y="742"/>
      <point x="295" y="742" type="curve" smooth="yes"/>
      <point x="424" y="742"/>
      <point x="533" y="671"/>
    </contour>
  </outline>
</glyph>
<glyph name="three" format="1">
  <advance width="598"/>
  <unicode hex="0033"/>
  <outline>
    <contour>
      <point x="556" y="225" type="curve" smooth="yes"/>
      <point x="556" y="87"/>
      <point x="449" y="-12"/>
      <point x="277" y="-12" type="curve" smooth="yes"/>
      <point x="163" y="-12"/>
      <point x="77" y="31"/>
      <point x="16" y="96" type="curve"/>
      <point x="101" y="196" type="line"/>
      <point x="146" y="155"/>
      <point x="208" y="128"/>
      <point x="277" y="128" type="curve" smooth="yes"/>
      <point x="343" y="128"/>
      <point x="396" y="164"/>
      <point x="396" y="225" type="curve" smooth="yes"/>
      <point x="396" y="291"/>
      <point x="347" y="313"/>
      <point x="259" y="313" type="curve" smooth="yes"/>
      <point x="214" y="313" type="line"/>
      <point x="214" y="443" type="line"/>
      <point x="277" y="443" type="line" smooth="yes"/>
      <point x="344" y="443"/>
      <point x="378" y="464"/>
      <point x="378" y="528" type="curve" smooth="yes"/>
      <point x="378" y="573"/>
      <point x="332" y="602"/>
      <point x="277" y="602" type="curve" smooth="yes"/>
      <point x="214" y="602"/>
      <point x="173" y="592"/>
      <point x="131" y="556" type="curve"/>
      <point x="56" y="661" type="line"/>
      <point x="131" y="721"/>
      <point x="196" y="742"/>
      <point x="292" y="742" type="curve" smooth="yes"/>
      <point x="414" y="742"/>
      <point x="538" y="666"/>
      <point x="538" y="546" type="curve" smooth="yes"/>
      <point x="538" y="473"/>
      <point x="500" y="415"/>
      <point x="434" y="390" type="curve"/>
      <point x="510" y="369"/>
      <point x="556" y="305"/>
    </contour>
  </outline>
</glyph>
<glyph name="four" format="1">
  <advance width="591"/>
  <unicode hex="0034"/>
  <outline>
    <contour>
      <point x="556" y="178" type="line"/>
      <point x="472" y="178" type="line"/>
      <point x="472" y="0" type="line"/>
      <point x="312" y="0" type="line"/>
      <point x="312" y="178" type="line"/>
      <point x="15" y="178" type="line"/>
      <point x="15" y="272" type="line"/>
      <point x="344" y="730" type="line"/>
      <point x="472" y="730" type="line"/>
      <point x="472" y="298" type="line"/>
      <point x="556" y="298" type="line"/>
    </contour>
    <contour>
      <point x="312" y="298" type="line"/>
      <point x="312" y="515" type="line"/>
      <point x="158" y="298" type="line"/>
    </contour>
  </outline>
</glyph>
<glyph name="five" format="1">
  <advance width="600"/>
  <unicode hex="0035"/>
  <outline>
    <contour>
      <point x="548" y="257" type="curve" smooth="yes"/>
      <point x="548" y="102"/>
      <point x="419" y="-12"/>
      <point x="264" y="-12" type="curve" smooth="yes"/>
      <point x="169" y="-12"/>
      <point x="82" y="29"/>
      <point x="30" y="77" type="curve"/>
      <point x="116" y="185" type="line"/>
      <point x="158" y="150"/>
      <point x="211" y="128"/>
      <point x="264" y="128" type="curve" smooth="yes"/>
      <point x="330" y="128"/>
      <point x="388" y="183"/>
      <point x="388" y="257" type="curve" smooth="yes"/>
      <point x="388" y="339"/>
      <point x="329" y="380"/>
      <point x="274" y="380" type="curve" smooth="yes"/>
      <point x="231" y="380"/>
      <point x="181" y="354"/>
      <point x="148" y="304" type="curve"/>
      <point x="55" y="339" type="line"/>
      <point x="95" y="730" type="line"/>
      <point x="496" y="730" type="line"/>
      <point x="496" y="600" type="line"/>
      <point x="216" y="600" type="line"/>
      <point x="202" y="471" type="line"/>
      <point x="243" y="503"/>
      <point x="278" y="510"/>
      <point x="332" y="510" type="curve" smooth="yes"/>
      <point x="458" y="510"/>
      <point x="548" y="413"/>
    </contour>
  </outline>
</glyph>
<glyph name="six" format="1">
  <advance width="600"/>
  <unicode hex="0036"/>
  <outline>
    <contour>
      <point x="583" y="246" type="curve" smooth="yes"/>
      <point x="583" y="95"/>
      <point x="464" y="-12"/>
      <point x="295" y="-12" type="curve" smooth="yes"/>
      <point x="133" y="-12"/>
      <point x="22" y="100"/>
      <point x="22" y="246" type="curve" smooth="yes"/>
      <point x="22" y="461"/>
      <point x="185" y="650"/>
      <point x="319" y="758" type="curve"/>
      <point x="415" y="646" type="line"/>
      <point x="344" y="593"/>
      <point x="257" y="505"/>
      <point x="232" y="443" type="curve"/>
      <point x="276" y="477"/>
      <point x="308" y="483"/>
      <point x="361" y="483" type="curve" smooth="yes"/>
      <point x="487" y="483"/>
      <point x="583" y="376"/>
    </contour>
    <contour>
      <point x="423" y="243" type="curve" smooth="yes"/>
      <point x="423" y="311"/>
      <point x="370" y="360"/>
      <point x="302" y="360" type="curve" smooth="yes"/>
      <point x="231" y="360"/>
      <point x="182" y="310"/>
      <point x="182" y="243" type="curve" smooth="yes"/>
      <point x="182" y="170"/>
      <point x="229" y="118"/>
      <point x="302" y="118" type="curve" smooth="yes"/>
      <point x="373" y="118"/>
      <point x="423" y="170"/>
    </contour>
  </outline>
</glyph>
<glyph name="seven" format="1">
  <advance width="590"/>
  <unicode hex="0037"/>
  <outline>
    <contour>
      <point x="571" y="730" type="line"/>
      <point x="239" y="0" type="line"/>
      <point x="71" y="0" type="line"/>
      <point x="364" y="595" type="line"/>
      <point x="58" y="595" type="line"/>
      <point x="58" y="730" type="line"/>
    </contour>
  </outline>
</glyph>
<glyph name="eight" format="1">
  <advance width="636"/>
  <unicode hex="0038"/>
  <outline>
    <contour>
      <point x="606" y="201" type="curve" smooth="yes"/>
      <point x="606" y="71"/>
      <point x="480" y="-12"/>
      <point x="318" y="-12" type="curve" smooth="yes"/>
      <point x="156" y="-12"/>
      <point x="30" y="71"/>
      <point x="30" y="211" type="curve" smooth="yes"/>
      <point x="30" y="300"/>
      <point x="81" y="357"/>
      <point x="159" y="393" type="curve"/>
      <point x="104" y="427"/>
      <point x="66" y="465"/>
      <point x="66" y="534" type="curve" smooth="yes"/>
      <point x="66" y="659"/>
      <point x="156" y="742"/>
      <point x="318" y="742" type="curve" smooth="yes"/>
      <point x="480" y="742"/>
      <point x="573" y="659"/>
      <point x="573" y="534" type="curve" smooth="yes"/>
      <point x="573" y="465"/>
      <point x="540" y="427"/>
      <point x="485" y="393" type="curve"/>
      <point x="563" y="357"/>
      <point x="606" y="300"/>
    </contour>
    <contour>
      <point x="423" y="534" type="curve" smooth="yes"/>
      <point x="423" y="587"/>
      <point x="371" y="617"/>
      <point x="318" y="617" type="curve" smooth="yes"/>
      <point x="265" y="617"/>
      <point x="216" y="587"/>
      <point x="216" y="534" type="curve" smooth="yes"/>
      <point x="216" y="478"/>
      <point x="262" y="446"/>
      <point x="318" y="446" type="curve" smooth="yes"/>
      <point x="374" y="446"/>
      <point x="423" y="478"/>
    </contour>
    <contour>
      <point x="451" y="225" type="curve" smooth="yes"/>
      <point x="451" y="293"/>
      <point x="386" y="326"/>
      <point x="318" y="326" type="curve" smooth="yes"/>
      <point x="250" y="326"/>
      <point x="185" y="293"/>
      <point x="185" y="225" type="curve" smooth="yes"/>
      <point x="185" y="159"/>
      <point x="250" y="118"/>
      <point x="318" y="118" type="curve" smooth="yes"/>
      <point x="386" y="118"/>
      <point x="451" y="159"/>
    </contour>
  </outline>
</glyph>
<glyph name="nine" format="1">
  <advance width="600"/>
  <unicode hex="0039"/>
  <outline>
    <contour>
      <point x="577" y="484" type="curve" smooth="yes"/>
      <point x="577" y="269"/>
      <point x="383" y="50"/>
      <point x="280" y="-28" type="curve"/>
      <point x="184" y="84" type="line"/>
      <point x="255" y="137"/>
      <point x="342" y="225"/>
      <point x="367" y="287" type="curve"/>
      <point x="323" y="253"/>
      <point x="291" y="247"/>
      <point x="238" y="247" type="curve" smooth="yes"/>
      <point x="112" y="247"/>
      <point x="16" y="354"/>
      <point x="16" y="484" type="curve" smooth="yes"/>
      <point x="16" y="635"/>
      <point x="135" y="742"/>
      <point x="304" y="742" type="curve" smooth="yes"/>
      <point x="466" y="742"/>
      <point x="577" y="630"/>
    </contour>
    <contour>
      <point x="417" y="487" type="curve" smooth="yes"/>
      <point x="417" y="560"/>
      <point x="370" y="612"/>
      <point x="297" y="612" type="curve" smooth="yes"/>
      <point x="226" y="612"/>
      <point x="176" y="560"/>
      <point x="176" y="487" type="curve" smooth="yes"/>
      <point x="176" y="419"/>
      <point x="229" y="370"/>
      <point x="297" y="370" type="curve" smooth="yes"/>
      <point x="368" y="370"/>
      <point x="417" y="420"/>
    </contour>
  </outline>
</glyph>
<glyph name="colon" format="1">
  <advance width="250"/>
  <unicode hex="003A"/>
  <outline>
    <contour>
      <point x="200" y="280" type="line"/>
      <point x="50" y="280" type="line"/>
      <point x="50" y="431" type="line"/>
      <point x="200" y="431" type="line"/>
    </contour>
    <contour>
      <point x="200" y="0" type="line"/>
      <point x="50" y="0" type="line"/>
      <point x="50" y="151" type="line"/>
      <point x="200" y="151" type="line"/>
    </contour>
  </outline>
</glyph>
<glyph name="semicolon" format="1">
  <advance width="250"/>
  <unicode hex="003B"/>
  <outline>
    <contour>
      <point x="200" y="280" type="line"/>
      <point x="50" y="280" type="line"/>
      <point x="50" y="431" type="line"/>
      <point x="200" y="431" type="line"/>
    </contour>
    <contour>
      <point x="194" y="37" type="line" smooth="yes"/>
      <point x="194" y="-37"/>
      <point x="158" y="-100"/>
      <point x="114" y="-160" type="curve"/>
      <point x="19" y="-104" type="line"/>
      <point x="39" y="-74"/>
      <point x="50" y="-30"/>
      <point x="50" y="12" type="curve" smooth="yes"/>
      <point x="50" y="151" type="line"/>
      <point x="194" y="151" type="line"/>
    </contour>
  </outline>
</glyph>
<glyph name="less" format="1">
  <advance width="390"/>
  <unicode hex="003C"/>
  <outline>
    <contour>
      <point x="329" y="57" type="line"/>
      <point x="38" y="257" type="line"/>
      <point x="38" y="392" type="line"/>
      <point x="329" y="590" type="line"/>
      <point x="329" y="435" type="line"/>
      <point x="153" y="325" type="line"/>
      <point x="329" y="214" type="line"/>
    </contour>
  </outline>
</glyph>
<glyph name="equal" format="1">
  <advance width="522"/>
  <unicode hex="003D"/>
  <outline>
    <contour>
      <point x="467" y="388" type="line"/>
      <point x="55" y="388" type="line"/>
      <point x="55" y="518" type="line"/>
      <point x="467" y="518" type="line"/>
    </contour>
    <contour>
      <point x="467" y="148" type="line"/>
      <point x="55" y="148" type="line"/>
      <point x="55" y="278" type="line"/>
      <point x="467" y="278" type="line"/>
    </contour>
  </outline>
</glyph>
<glyph name="greater" format="1">
  <advance width="390"/>
  <unicode hex="003E"/>
  <outline>
    <contour>
      <point x="352" y="258" type="line"/>
      <point x="61" y="60" type="line"/>
      <point x="61" y="215" type="line"/>
      <point x="237" y="325" type="line"/>
      <point x="61" y="436" type="line"/>
      <point x="61" y="593" type="line"/>
      <point x="352" y="393" type="line"/>
    </contour>
  </outline>
</glyph>
<glyph name="question" format="1">
  <advance width="460"/>
  <unicode hex="003F"/>
  <outline>
    <contour>
      <point x="432" y="555" type="curve" smooth="yes"/>
      <point x="432" y="479"/>
      <point x="381" y="418"/>
      <point x="334" y="361" type="curve" smooth="yes"/>
      <point x="295" y="313"/>
      <point x="269" y="268"/>
      <point x="269" y="218" type="curve" smooth="yes"/>
      <point x="269" y="195" type="line"/>
      <point x="125" y="195" type="line"/>
      <point x="125" y="218" type="line" smooth="yes"/>
      <point x="125" y="287"/>
      <point x="153" y="344"/>
      <point x="193" y="394" type="curve" smooth="yes"/>
      <point x="234" y="447"/>
      <point x="277" y="493"/>
      <point x="277" y="537" type="curve" smooth="yes"/>
      <point x="277" y="580"/>
      <point x="247" y="616"/>
      <point x="208" y="616" type="curve" smooth="yes"/>
      <point x="156" y="616"/>
      <point x="127" y="591"/>
      <point x="97" y="560" type="curve"/>
      <point x="15" y="661" type="line"/>
      <point x="66" y="714"/>
      <point x="127" y="742"/>
      <point x="208" y="742" type="curve" smooth="yes"/>
      <point x="338" y="742"/>
      <point x="432" y="668"/>
    </contour>
    <contour>
      <point x="275" y="0" type="line"/>
      <point x="119" y="0" type="line"/>
      <point x="119" y="146" type="line"/>
      <point x="275" y="146" type="line"/>
    </contour>
  </outline>
</glyph>
<glyph name="A" format="1">
  <advance width="710"/>
  <unicode hex="0041"/>
  <outline>
    <contour>
      <point x="695" y="0" type="line"/>
      <point x="519" y="0" type="line"/>
      <point x="463" y="184" type="line"/>
      <point x="241" y="184" type="line"/>
      <point x="184" y="0" type="line"/>
      <point x="15" y="0" type="line"/>
      <point x="276" y="730" type="line"/>
      <point x="430" y="730" type="line"/>
    </contour>
    <contour>
      <point x="423" y="319" type="line"/>
      <point x="369" y="497" type="line" smooth="yes"/>
      <point x="361" y="523"/>
      <point x="353" y="556"/>
      <point x="353" y="556" type="curve"/>
      <point x="353" y="556"/>
      <point x="346" y="524"/>
      <point x="338" y="497" type="curve" smooth="yes"/>
      <point x="283" y="319" type="line"/>
    </contour>
  </outline>
</glyph>
<glyph name="B" format="1">
  <advance width="660"/>
  <unicode hex="0042"/>
  <outline>
    <contour>
      <point x="620" y="207" type="curve" smooth="yes"/>
      <point x="620" y="76"/>
      <point x="516" y="0"/>
      <point x="352" y="0" type="curve" smooth="yes"/>
      <point x="75" y="0" type="line"/>
      <point x="75" y="730" type="line"/>
      <point x="328" y="730" type="line" smooth="yes"/>
      <point x="481" y="730"/>
      <point x="582" y="657"/>
      <point x="582" y="534" type="curve" smooth="yes"/>
      <point x="582" y="461"/>
      <point x="535" y="402"/>
      <point x="472" y="378" type="curve"/>
      <point x="556" y="366"/>
      <point x="620" y="291"/>
    </contour>
    <contour>
      <point x="425" y="515" type="curve" smooth="yes"/>
      <point x="425" y="576"/>
      <point x="384" y="595"/>
      <point x="313" y="595" type="curve" smooth="yes"/>
      <point x="235" y="595" type="line"/>
      <point x="235" y="426" type="line"/>
      <point x="313" y="426" type="line" smooth="yes"/>
      <point x="387" y="426"/>
      <point x="425" y="455"/>
    </contour>
    <contour>
      <point x="455" y="216" type="curve" smooth="yes"/>
      <point x="455" y="267"/>
      <point x="418" y="291"/>
      <point x="352" y="291" type="curve" smooth="yes"/>
      <point x="235" y="291" type="line"/>
      <point x="235" y="135" type="line"/>
      <point x="352" y="135" type="line" smooth="yes"/>
      <point x="427" y="135"/>
      <point x="455" y="165"/>
    </contour>
  </outline>
</glyph>
<glyph name="C" format="1">
  <advance width="720"/>
  <unicode hex="0043"/>
  <outline>
    <contour>
      <point x="689" y="106" type="line"/>
      <point x="621" y="33"/>
      <point x="540" y="-12"/>
      <point x="413" y="-12" type="curve" smooth="yes"/>
      <point x="191" y="-12"/>
      <point x="40" y="135"/>
      <point x="40" y="369" type="curve" smooth="yes"/>
      <point x="40" y="588"/>
      <point x="205" y="742"/>
      <point x="410" y="742" type="curve" smooth="yes"/>
      <point x="517" y="742"/>
      <point x="598" y="711"/>
      <point x="673" y="634" type="curve"/>
      <point x="583" y="529" type="line"/>
      <point x="534" y="578"/>
      <point x="478" y="602"/>
      <point x="410" y="602" type="curve" smooth="yes"/>
      <point x="285" y="602"/>
      <point x="205" y="503"/>
      <point x="205" y="369" type="curve" smooth="yes"/>
      <point x="205" y="219"/>
      <point x="278" y="128"/>
      <point x="413" y="128" type="curve" smooth="yes"/>
      <point x="505" y="128"/>
      <point x="550" y="167"/>
      <point x="597" y="211" type="curve"/>
    </contour>
  </outline>
</glyph>
<glyph name="D" format="1">
  <advance width="716"/>
  <unicode hex="0044"/>
  <outline>
    <contour>
      <point x="676" y="366" type="curve" smooth="yes"/>
      <point x="676" y="125"/>
      <point x="490" y="0"/>
      <point x="296" y="0" type="curve" smooth="yes"/>
      <point x="75" y="0" type="line"/>
      <point x="75" y="730" type="line"/>
      <point x="296" y="730" type="line" smooth="yes"/>
      <point x="504" y="730"/>
      <point x="676" y="602"/>
    </contour>
    <contour>
      <point x="511" y="366" type="curve" smooth="yes"/>
      <point x="511" y="494"/>
      <point x="424" y="595"/>
      <point x="296" y="595" type="curve" smooth="yes"/>
      <point x="235" y="595" type="line"/>
      <point x="235" y="135" type="line"/>
      <point x="296" y="135" type="line" smooth="yes"/>
      <point x="432" y="135"/>
      <point x="511" y="243"/>
    </contour>
  </outline>
</glyph>
<glyph name="E" format="1">
  <advance width="572"/>
  <unicode hex="0045"/>
  <outline>
    <contour>
      <point x="515" y="0" type="line"/>
      <point x="75" y="0" type="line"/>
      <point x="75" y="730" type="line"/>
      <point x="500" y="730" type="line"/>
      <point x="500" y="595" type="line"/>
      <point x="235" y="595" type="line"/>
      <point x="235" y="424" type="line"/>
      <point x="481" y="424" type="line"/>
      <point x="481" y="289" type="line"/>
      <point x="235" y="289" type="line"/>
      <point x="235" y="135" type="line"/>
      <point x="515" y="135" type="line"/>
    </contour>
  </outline>
</glyph>
<glyph name="F" format="1">
  <advance width="521"/>
  <unicode hex="0046"/>
  <outline>
    <contour>
      <point x="466" y="595" type="line"/>
      <point x="235" y="595" type="line"/>
      <point x="235" y="421" type="line"/>
      <point x="451" y="421" type="line"/>
      <point x="451" y="286" type="line"/>
      <point x="235" y="286" type="line"/>
      <point x="235" y="0" type="line"/>
      <point x="75" y="0" type="line"/>
      <point x="75" y="730" type="line"/>
      <point x="466" y="730" type="line"/>
    </contour>
  </outline>
</glyph>
<glyph name="G" format="1">
  <advance width="805"/>
  <unicode hex="0047"/>
  <outline>
    <contour>
      <point x="771" y="368" type="line"/>
      <point x="771" y="127"/>
      <point x="613" y="-12"/>
      <point x="414" y="-12" type="curve" smooth="yes"/>
      <point x="197" y="-12"/>
      <point x="40" y="143"/>
      <point x="40" y="368" type="curve" smooth="yes"/>
      <point x="40" y="594"/>
      <point x="208" y="742"/>
      <point x="411" y="742" type="curve" smooth="yes"/>
      <point x="540" y="742"/>
      <point x="629" y="692"/>
      <point x="693" y="623" type="curve"/>
      <point x="594" y="526" type="line"/>
      <point x="549" y="575"/>
      <point x="485" y="602"/>
      <point x="411" y="602" type="curve" smooth="yes"/>
      <point x="289" y="602"/>
      <point x="198" y="494"/>
      <point x="198" y="368" type="curve" smooth="yes"/>
      <point x="198" y="239"/>
      <point x="289" y="128"/>
      <point x="414" y="128" type="curve" smooth="yes"/>
      <point x="502" y="128"/>
      <point x="566" y="163"/>
      <point x="594" y="233" type="curve"/>
      <point x="408" y="233" type="line"/>
      <point x="408" y="368" type="line"/>
    </contour>
  </outline>
</glyph>
<glyph name="H" format="1">
  <advance width="724"/>
  <unicode hex="0048"/>
  <outline>
    <contour>
      <point x="649" y="0" type="line"/>
      <point x="489" y="0" type="line"/>
      <point x="489" y="292" type="line"/>
      <point x="235" y="292" type="line"/>
      <point x="235" y="0" type="line"/>
      <point x="75" y="0" type="line"/>
      <point x="75" y="730" type="line"/>
      <point x="235" y="730" type="line"/>
      <point x="235" y="427" type="line"/>
      <point x="489" y="427" type="line"/>
      <point x="489" y="730" type="line"/>
      <point x="649" y="730" type="line"/>
    </contour>
  </outline>
</glyph>
<glyph name="I" format="1">
  <advance width="310"/>
  <unicode hex="0049"/>
  <outline>
    <contour>
      <point x="235" y="0" type="line"/>
      <point x="75" y="0" type="line"/>
      <point x="75" y="730" type="line"/>
      <point x="235" y="730" type="line"/>
    </contour>
  </outline>
</glyph>
<glyph name="J" format="1">
  <advance width="431"/>
  <unicode hex="004A"/>
  <outline>
    <contour>
      <point x="361" y="231" type="line" smooth="yes"/>
      <point x="361" y="94"/>
      <point x="251" y="0"/>
      <point x="118" y="0" type="curve" smooth="yes"/>
      <point x="35" y="0" type="line"/>
      <point x="35" y="137" type="line"/>
      <point x="86" y="137" type="line" smooth="yes"/>
      <point x="162" y="137"/>
      <point x="201" y="174"/>
      <point x="201" y="267" type="curve" smooth="yes"/>
      <point x="201" y="730" type="line"/>
      <point x="361" y="730" type="line"/>
    </contour>
  </outline>
</glyph>
<glyph name="K" format="1">
  <advance width="712"/>
  <unicode hex="004B"/>
  <outline>
    <contour>
      <point x="683" y="0" type="line"/>
      <point x="489" y="0" type="line"/>
      <point x="276" y="299" type="line"/>
      <point x="235" y="254" type="line"/>
      <point x="235" y="0" type="line"/>
      <point x="75" y="0" type="line"/>
      <point x="75" y="730" type="line"/>
      <point x="235" y="730" type="line"/>
      <point x="235" y="465" type="line"/>
      <point x="471" y="730" type="line"/>
      <point x="669" y="730" type="line"/>
      <point x="385" y="419" type="line"/>
    </contour>
  </outline>
</glyph>
<glyph name="L" format="1">
  <advance width="530"/>
  <unicode hex="004C"/>
  <outline>
    <contour>
      <point x="495" y="0" type="line"/>
      <point x="75" y="0" type="line"/>
      <point x="75" y="730" type="line"/>
      <point x="235" y="730" type="line"/>
      <point x="235" y="135" type="line"/>
      <point x="495" y="135" type="line"/>
    </contour>
  </outline>
</glyph>
<glyph name="M" format="1">
  <advance width="880"/>
  <unicode hex="004D"/>
  <outline>
    <contour>
      <point x="805" y="0" type="line"/>
      <point x="645" y="0" type="line"/>
      <point x="645" y="421" type="line" smooth="yes"/>
      <point x="645" y="447"/>
      <point x="648" y="472"/>
      <point x="648" y="472" type="curve"/>
      <point x="648" y="472"/>
      <point x="642" y="455"/>
      <point x="635" y="443" type="curve" smooth="yes"/>
      <point x="472" y="144" type="line"/>
      <point x="411" y="144" type="line"/>
      <point x="245" y="443" type="line" smooth="yes"/>
      <point x="238" y="455"/>
      <point x="232" y="472"/>
      <point x="232" y="472" type="curve"/>
      <point x="232" y="472"/>
      <point x="235" y="447"/>
      <point x="235" y="421" type="curve" smooth="yes"/>
      <point x="235" y="0" type="line"/>
      <point x="75" y="0" type="line"/>
      <point x="75" y="730" type="line"/>
      <point x="232" y="730" type="line"/>
      <point x="429" y="374" type="line" smooth="yes"/>
      <point x="437" y="360"/>
      <point x="443" y="341"/>
      <point x="443" y="341" type="curve"/>
      <point x="443" y="341"/>
      <point x="449" y="360"/>
      <point x="456" y="374" type="curve" smooth="yes"/>
      <point x="642" y="730" type="line"/>
      <point x="805" y="730" type="line"/>
    </contour>
  </outline>
</glyph>
<glyph name="N" format="1">
  <advance width="786"/>
  <unicode hex="004E"/>
  <outline>
    <contour>
      <point x="711" y="0" type="line"/>
      <point x="573" y="0" type="line"/>
      <point x="251" y="425" type="line" smooth="yes"/>
      <point x="241" y="439"/>
      <point x="233" y="455"/>
      <point x="233" y="455" type="curve"/>
      <point x="233" y="455"/>
      <point x="235" y="436"/>
      <point x="235" y="418" type="curve" smooth="yes"/>
      <point x="235" y="0" type="line"/>
      <point x="75" y="0" type="line"/>
      <point x="75" y="730" type="line"/>
      <point x="213" y="730" type="line"/>
      <point x="535" y="309" type="line" smooth="yes"/>
      <point x="546" y="295"/>
      <point x="553" y="279"/>
      <point x="553" y="279" type="curve"/>
      <point x="553" y="279"/>
      <point x="551" y="298"/>
      <point x="551" y="316" type="curve" smooth="yes"/>
      <point x="551" y="730" type="line"/>
      <point x="711" y="730" type="line"/>
    </contour>
  </outline>
</glyph>
<glyph name="O" format="1">
  <advance width="832"/>
  <unicode hex="004F"/>
  <outline>
    <contour>
      <point x="792" y="368" type="curve" smooth="yes"/>
      <point x="792" y="157"/>
      <point x="641" y="-12"/>
      <point x="415" y="-12" type="curve" smooth="yes"/>
      <point x="189" y="-12"/>
      <point x="40" y="160"/>
      <point x="40" y="368" type="curve" smooth="yes"/>
      <point x="40" y="578"/>
      <point x="191" y="742"/>
      <point x="417" y="742" type="curve" smooth="yes"/>
      <point x="645" y="742"/>
      <point x="792" y="585"/>
    </contour>
    <contour>
      <point x="627" y="368" type="curve" smooth="yes"/>
      <point x="627" y="496"/>
      <point x="544" y="602"/>
      <point x="417" y="602" type="curve" smooth="yes"/>
      <point x="292" y="602"/>
      <point x="205" y="490"/>
      <point x="205" y="368" type="curve" smooth="yes"/>
      <point x="205" y="234"/>
      <point x="301" y="128"/>
      <point x="415" y="128" type="curve" smooth="yes"/>
      <point x="547" y="128"/>
      <point x="627" y="245"/>
    </contour>
  </outline>
</glyph>
<glyph name="P" format="1">
  <advance width="609"/>
  <unicode hex="0050"/>
  <outline>
    <contour>
      <point x="584" y="515" type="curve" smooth="yes"/>
      <point x="584" y="377"/>
      <point x="482" y="290"/>
      <point x="317" y="290" type="curve" smooth="yes"/>
      <point x="235" y="290" type="line"/>
      <point x="235" y="0" type="line"/>
      <point x="75" y="0" type="line"/>
      <point x="75" y="730" type="line"/>
      <point x="317" y="730" type="line" smooth="yes"/>
      <point x="480" y="730"/>
      <point x="584" y="652"/>
    </contour>
    <contour>
      <point x="424" y="512" type="curve" smooth="yes"/>
      <point x="424" y="572"/>
      <point x="388" y="595"/>
      <point x="317" y="595" type="curve" smooth="yes"/>
      <point x="235" y="595" type="line"/>
      <point x="235" y="425" type="line"/>
      <point x="317" y="425" type="line" smooth="yes"/>
      <point x="389" y="425"/>
      <point x="424" y="453"/>
    </contour>
  </outline>
</glyph>
<glyph name="Q" format="1">
  <advance width="832"/>
  <unicode hex="0051"/>
  <outline>
    <contour>
      <point x="800" y="99" type="curve"/>
      <point x="735" y="-18" type="line"/>
      <point x="706" y="-9"/>
      <point x="665" y="15"/>
      <point x="623" y="46" type="curve"/>
      <point x="565" y="9"/>
      <point x="495" y="-12"/>
      <point x="415" y="-12" type="curve" smooth="yes"/>
      <point x="189" y="-12"/>
      <point x="40" y="160"/>
      <point x="40" y="368" type="curve" smooth="yes"/>
      <point x="40" y="578"/>
      <point x="191" y="742"/>
      <point x="417" y="742" type="curve" smooth="yes"/>
      <point x="645" y="742"/>
      <point x="792" y="585"/>
      <point x="792" y="368" type="curve" smooth="yes"/>
      <point x="792" y="281"/>
      <point x="766" y="200"/>
      <point x="719" y="136" type="curve"/>
      <point x="748" y="119"/>
      <point x="775" y="105"/>
    </contour>
    <contour>
      <point x="627" y="368" type="curve" smooth="yes"/>
      <point x="627" y="490"/>
      <point x="542" y="602"/>
      <point x="417" y="602" type="curve" smooth="yes"/>
      <point x="292" y="602"/>
      <point x="205" y="490"/>
      <point x="205" y="368" type="curve" smooth="yes"/>
      <point x="205" y="238"/>
      <point x="302" y="128"/>
      <point x="415" y="128" type="curve" smooth="yes"/>
      <point x="451" y="128"/>
      <point x="482" y="136"/>
      <point x="510" y="151" type="curve"/>
      <point x="496" y="168"/>
      <point x="484" y="185"/>
      <point x="476" y="200" type="curve"/>
      <point x="561" y="278" type="line"/>
      <point x="570" y="265"/>
      <point x="582" y="252"/>
      <point x="595" y="238" type="curve"/>
      <point x="616" y="277"/>
      <point x="627" y="322"/>
    </contour>
  </outline>
</glyph>
<glyph name="R" format="1">
  <advance width="649"/>
  <unicode hex="0052"/>
  <outline>
    <contour>
      <point x="619" y="0" type="line"/>
      <point x="438" y="0" type="line"/>
      <point x="235" y="345" type="line"/>
      <point x="235" y="0" type="line"/>
      <point x="75" y="0" type="line"/>
      <point x="75" y="730" type="line"/>
      <point x="337" y="730" type="line" smooth="yes"/>
      <point x="490" y="730"/>
      <point x="588" y="638"/>
      <point x="588" y="512" type="curve" smooth="yes"/>
      <point x="588" y="403"/>
      <point x="521" y="331"/>
      <point x="425" y="305" type="curve"/>
    </contour>
    <contour>
      <point x="428" y="512" type="curve" smooth="yes"/>
      <point x="428" y="563"/>
      <point x="388" y="595"/>
      <point x="337" y="595" type="curve" smooth="yes"/>
      <point x="235" y="595" type="line"/>
      <point x="235" y="419" type="line"/>
      <point x="337" y="419" type="line" smooth="yes"/>
      <point x="393" y="419"/>
      <point x="428" y="455"/>
    </contour>
  </outline>
</glyph>
<glyph name="S" format="1">
  <advance width="593"/>
  <unicode hex="0053"/>
  <outline>
    <contour>
      <point x="540" y="207" type="curve" smooth="yes"/>
      <point x="540" y="69"/>
      <point x="442" y="-12"/>
      <point x="284" y="-12" type="curve" smooth="yes"/>
      <point x="183" y="-12"/>
      <point x="109" y="25"/>
      <point x="39" y="79" type="curve"/>
      <point x="122" y="191" type="line"/>
      <point x="165" y="157"/>
      <point x="227" y="128"/>
      <point x="287" y="128" type="curve" smooth="yes"/>
      <point x="360" y="128"/>
      <point x="380" y="153"/>
      <point x="380" y="197" type="curve" smooth="yes"/>
      <point x="380" y="270"/>
      <point x="247" y="295"/>
      <point x="186" y="329" type="curve" smooth="yes"/>
      <point x="113" y="369"/>
      <point x="55" y="415"/>
      <point x="55" y="531" type="curve" smooth="yes"/>
      <point x="55" y="681"/>
      <point x="186" y="742"/>
      <point x="315" y="742" type="curve" smooth="yes"/>
      <point x="384" y="742"/>
      <point x="467" y="723"/>
      <point x="526" y="679" type="curve"/>
      <point x="454" y="560" type="line"/>
      <point x="422" y="584"/>
      <point x="368" y="602"/>
      <point x="315" y="602" type="curve" smooth="yes"/>
      <point x="241" y="602"/>
      <point x="215" y="560"/>
      <point x="215" y="531" type="curve" smooth="yes"/>
      <point x="215" y="465"/>
      <point x="308" y="445"/>
      <point x="393" y="408" type="curve" smooth="yes"/>
      <point x="464" y="377"/>
      <point x="540" y="327"/>
    </contour>
  </outline>
</glyph>
<glyph name="T" format="1">
  <advance width="516"/>
  <unicode hex="0054"/>
  <outline>
    <contour>
      <point x="481" y="595" type="line"/>
      <point x="340" y="595" type="line"/>
      <point x="340" y="0" type="line"/>
      <point x="180" y="0" type="line"/>
      <point x="180" y="595" type="line"/>
      <point x="35" y="595" type="line"/>
      <point x="35" y="730" type="line"/>
      <point x="481" y="730" type="line"/>
    </contour>
  </outline>
</glyph>
<glyph name="U" format="1">
  <advance width="772"/>
  <unicode hex="0055"/>
  <outline>
    <contour>
      <point x="702" y="296" type="line" smooth="yes"/>
      <point x="702" y="96"/>
      <point x="552" y="-12"/>
      <point x="382" y="-12" type="curve" smooth="yes"/>
      <point x="214" y="-12"/>
      <point x="70" y="96"/>
      <point x="70" y="296" type="curve" smooth="yes"/>
      <point x="70" y="730" type="line"/>
      <point x="231" y="730" type="line"/>
      <point x="231" y="296" type="line" smooth="yes"/>
      <point x="231" y="197"/>
      <point x="294" y="126"/>
      <point x="382" y="126" type="curve" smooth="yes"/>
      <point x="472" y="126"/>
      <point x="543" y="197"/>
      <point x="543" y="296" type="curve" smooth="yes"/>
      <point x="543" y="730" type="line"/>
      <point x="702" y="730" type="line"/>
    </contour>
  </outline>
</glyph>
<glyph name="V" format="1">
  <advance width="660"/>
  <unicode hex="0056"/>
  <outline>
    <contour>
      <point x="645" y="730" type="line"/>
      <point x="407" y="0" type="line"/>
      <point x="254" y="0" type="line"/>
      <point x="15" y="730" type="line"/>
      <point x="179" y="730" type="line"/>
      <point x="321" y="264" type="line" smooth="yes"/>
      <point x="327" y="245"/>
      <point x="332" y="223"/>
      <point x="332" y="223" type="curve"/>
      <point x="332" y="223"/>
      <point x="339" y="246"/>
      <point x="344" y="264" type="curve" smooth="yes"/>
      <point x="485" y="730" type="line"/>
    </contour>
  </outline>
</glyph>
<glyph name="W" format="1">
  <advance width="954"/>
  <unicode hex="0057"/>
  <outline>
    <contour>
      <point x="919" y="730" type="line"/>
      <point x="727" y="0" type="line"/>
      <point x="572" y="0" type="line"/>
      <point x="493" y="384" type="line" smooth="yes"/>
      <point x="487" y="414"/>
      <point x="478" y="499"/>
      <point x="478" y="499" type="curve"/>
      <point x="478" y="499"/>
      <point x="469" y="413"/>
      <point x="463" y="384" type="curve" smooth="yes"/>
      <point x="384" y="0" type="line"/>
      <point x="224" y="0" type="line"/>
      <point x="35" y="730" type="line"/>
      <point x="201" y="730" type="line"/>
      <point x="295" y="340" type="line" smooth="yes"/>
      <point x="302" y="312"/>
      <point x="307" y="263"/>
      <point x="307" y="263" type="curve"/>
      <point x="307" y="263"/>
      <point x="312" y="310"/>
      <point x="318" y="340" type="curve" smooth="yes"/>
      <point x="398" y="730" type="line"/>
      <point x="557" y="730" type="line"/>
      <point x="643" y="340" type="line" smooth="yes"/>
      <point x="648" y="316"/>
      <point x="654" y="263"/>
      <point x="654" y="263" type="curve"/>
      <point x="654" y="263"/>
      <point x="659" y="312"/>
      <point x="666" y="340" type="curve" smooth="yes"/>
      <point x="757" y="730" type="line"/>
    </contour>
  </outline>
</glyph>
<glyph name="X" format="1">
  <advance width="699"/>
  <unicode hex="0058"/>
  <outline>
    <contour>
      <point x="675" y="0" type="line"/>
      <point x="496" y="0" type="line"/>
      <point x="348" y="258" type="line"/>
      <point x="202" y="0" type="line"/>
      <point x="24" y="0" type="line"/>
      <point x="258" y="398" type="line"/>
      <point x="60" y="730" type="line"/>
      <point x="237" y="730" type="line"/>
      <point x="348" y="539" type="line"/>
      <point x="453" y="730" type="line"/>
      <point x="632" y="730" type="line"/>
      <point x="436" y="398" type="line"/>
    </contour>
  </outline>
</glyph>
<glyph name="Y" format="1">
  <advance width="690"/>
  <unicode hex="0059"/>
  <outline>
    <contour>
      <point x="675" y="730" type="line"/>
      <point x="423" y="296" type="line"/>
      <point x="423" y="0" type="line"/>
      <point x="263" y="0" type="line"/>
      <point x="263" y="296" type="line"/>
      <point x="15" y="730" type="line"/>
      <point x="197" y="730" type="line"/>
      <point x="331" y="477" type="line" smooth="yes"/>
      <point x="339" y="461"/>
      <point x="345" y="438"/>
      <point x="345" y="438" type="curve"/>
      <point x="345" y="438"/>
      <point x="351" y="461"/>
      <point x="359" y="477" type="curve" smooth="yes"/>
      <point x="492" y="730" type="line"/>
    </contour>
  </outline>
</glyph>
<glyph name="Z" format="1">
  <advance width="660"/>
  <unicode hex="005A"/>
  <outline>
    <contour>
      <point x="613" y="730" type="line"/>
      <point x="277" y="135" type="line"/>
      <point x="605" y="135" type="line"/>
      <point x="605" y="0" type="line"/>
      <point x="29" y="0" type="line"/>
      <point x="365" y="595" type="line"/>
      <point x="65" y="595" type="line"/>
      <point x="65" y="730" type="line"/>
    </contour>
  </outline>
</glyph>
<glyph name="bracketleft" format="1">
  <advance width="365"/>
  <unicode hex="005B"/>
  <outline>
    <contour>
      <point x="335" y="-179" type="line"/>
      <point x="75" y="-179" type="line"/>
      <point x="75" y="730" type="line"/>
      <point x="335" y="730" type="line"/>
      <point x="335" y="596" type="line"/>
      <point x="227" y="596" type="line"/>
      <point x="227" y="-45" type="line"/>
      <point x="335" y="-45" type="line"/>
    </contour>
  </outline>
</glyph>
<glyph name="backslash" format="1">
  <advance width="444"/>
  <unicode hex="005C"/>
  <outline>
    <contour>
      <point x="424" y="0" type="line"/>
      <point x="273" y="0" type="line"/>
      <point x="20" y="730" type="line"/>
      <point x="170" y="730" type="line"/>
    </contour>
  </outline>
</glyph>
<glyph name="bracketright" format="1">
  <advance width="365"/>
  <unicode hex="005D"/>
  <outline>
    <contour>
      <point x="290" y="-179" type="line"/>
      <point x="30" y="-179" type="line"/>
      <point x="30" y="-45" type="line"/>
      <point x="138" y="-45" type="line"/>
      <point x="138" y="596" type="line"/>
      <point x="30" y="596" type="line"/>
      <point x="30" y="730" type="line"/>
      <point x="290" y="730" type="line"/>
    </contour>
  </outline>
</glyph>
<glyph name="asciicircum" format="1">
  <advance width="583"/>
  <unicode hex="005E"/>
  <outline>
    <contour>
      <point x="553" y="369" type="line"/>
      <point x="396" y="369" type="line"/>
      <point x="290" y="595" type="line"/>
      <point x="185" y="369" type="line"/>
      <point x="30" y="369" type="line"/>
      <point x="213" y="730" type="line"/>
      <point x="368" y="730" type="line"/>
    </contour>
  </outline>
</glyph>
<glyph name="grave" format="1">
  <advance width="500"/>
  <unicode hex="0060"/>
  <outline>
    <contour>
      <point x="342" y="495" type="line"/>
      <point x="231" y="495" type="line"/>
      <point x="122" y="662" type="line"/>
      <point x="265" y="662" type="line"/>
    </contour>
  </outline>
</glyph>
<glyph name="a" format="1">
  <advance width="529"/>
  <unicode hex="0061"/>
  <outline>
    <contour>
      <point x="482" y="0" type="line"/>
      <point x="327" y="0" type="line"/>
      <point x="327" y="33" type="line"/>
      <point x="280" y="0"/>
      <point x="253" y="-12"/>
      <point x="178" y="-12" type="curve" smooth="yes"/>
      <point x="95" y="-12"/>
      <point x="22" y="40"/>
      <point x="22" y="122" type="curve" smooth="yes"/>
      <point x="22" y="256"/>
      <point x="187" y="282"/>
      <point x="327" y="288" type="curve"/>
      <point x="327" y="303" type="line" smooth="yes"/>
      <point x="327" y="333"/>
      <point x="307" y="343"/>
      <point x="263" y="343" type="curve" smooth="yes"/>
      <point x="203" y="343"/>
      <point x="154" y="329"/>
      <point x="109" y="306" type="curve"/>
      <point x="61" y="399" type="line"/>
      <point x="118" y="431"/>
      <point x="190" y="443"/>
      <point x="268" y="443" type="curve" smooth="yes"/>
      <point x="411" y="443"/>
      <point x="482" y="397"/>
      <point x="482" y="274" type="curve" smooth="yes"/>
    </contour>
    <contour>
      <point x="327" y="129" type="curve"/>
      <point x="327" y="201" type="line"/>
      <point x="261" y="201"/>
      <point x="187" y="186"/>
      <point x="187" y="138" type="curve" smooth="yes"/>
      <point x="187" y="113"/>
      <point x="212" y="98"/>
      <point x="237" y="98" type="curve" smooth="yes"/>
      <point x="276" y="98"/>
      <point x="302" y="107"/>
    </contour>
  </outline>
</glyph>
<glyph name="b" format="1">
  <advance width="562"/>
  <unicode hex="0062"/>
  <outline>
    <contour>
      <point x="537" y="215" type="curve" smooth="yes"/>
      <point x="537" y="94"/>
      <point x="456" y="-12"/>
      <point x="335" y="-12" type="curve" smooth="yes"/>
      <point x="283" y="-12"/>
      <point x="229" y="10"/>
      <point x="205" y="44" type="curve"/>
      <point x="205" y="0" type="line"/>
      <point x="50" y="0" type="line"/>
      <point x="50" y="730" type="line"/>
      <point x="205" y="730" type="line"/>
      <point x="205" y="387" type="line"/>
      <point x="229" y="421"/>
      <point x="283" y="443"/>
      <point x="335" y="443" type="curve" smooth="yes"/>
      <point x="456" y="443"/>
      <point x="537" y="333"/>
    </contour>
    <contour>
      <point x="382" y="217" type="curve" smooth="yes"/>
      <point x="382" y="276"/>
      <point x="345" y="316"/>
      <point x="294" y="316" type="curve" smooth="yes"/>
      <point x="241" y="316"/>
      <point x="205" y="275"/>
      <point x="205" y="217" type="curve" smooth="yes"/>
      <point x="205" y="158"/>
      <point x="240" y="115"/>
      <point x="294" y="115" type="curve" smooth="yes"/>
      <point x="345" y="115"/>
      <point x="382" y="158"/>
    </contour>
  </outline>
</glyph>
<glyph name="c" format="1">
  <advance width="462"/>
  <unicode hex="0063"/>
  <outline>
    <contour>
      <point x="451" y="81" type="line"/>
      <point x="399" y="16"/>
      <point x="346" y="-12"/>
      <point x="262" y="-12" type="curve" smooth="yes"/>
      <point x="126" y="-12"/>
      <point x="25" y="86"/>
      <point x="25" y="214" type="curve" smooth="yes"/>
      <point x="25" y="339"/>
      <point x="124" y="443"/>
      <point x="262" y="443" type="curve" smooth="yes"/>
      <point x="335" y="443"/>
      <point x="391" y="418"/>
      <point x="437" y="363" type="curve"/>
      <point x="348" y="280" type="line"/>
      <point x="323" y="307"/>
      <point x="294" y="320"/>
      <point x="262" y="320" type="curve" smooth="yes"/>
      <point x="207" y="320"/>
      <point x="169" y="275"/>
      <point x="169" y="214" type="curve" smooth="yes"/>
      <point x="169" y="162"/>
      <point x="206" y="110"/>
      <point x="262" y="110" type="curve" smooth="yes"/>
      <point x="302" y="110"/>
      <point x="323" y="126"/>
      <point x="347" y="154" type="curve"/>
    </contour>
  </outline>
</glyph>
<glyph name="d" format="1">
  <advance width="562"/>
  <unicode hex="0064"/>
  <outline>
    <contour>
      <point x="512" y="0" type="line"/>
      <point x="357" y="0" type="line"/>
      <point x="357" y="44" type="line"/>
      <point x="333" y="10"/>
      <point x="279" y="-12"/>
      <point x="227" y="-12" type="curve" smooth="yes"/>
      <point x="106" y="-12"/>
      <point x="25" y="94"/>
      <point x="25" y="215" type="curve" smooth="yes"/>
      <point x="25" y="333"/>
      <point x="106" y="443"/>
      <point x="227" y="443" type="curve" smooth="yes"/>
      <point x="279" y="443"/>
      <point x="333" y="421"/>
      <point x="357" y="387" type="curve"/>
      <point x="357" y="730" type="line"/>
      <point x="512" y="730" type="line"/>
    </contour>
    <contour>
      <point x="357" y="217" type="curve" smooth="yes"/>
      <point x="357" y="275"/>
      <point x="321" y="316"/>
      <point x="268" y="316" type="curve" smooth="yes"/>
      <point x="217" y="316"/>
      <point x="180" y="276"/>
      <point x="180" y="217" type="curve" smooth="yes"/>
      <point x="180" y="158"/>
      <point x="217" y="115"/>
      <point x="268" y="115" type="curve" smooth="yes"/>
      <point x="322" y="115"/>
      <point x="357" y="158"/>
    </contour>
  </outline>
</glyph>
<glyph name="e" format="1">
  <advance width="504"/>
  <unicode hex="0065"/>
  <outline>
    <contour>
      <point x="477" y="60" type="line"/>
      <point x="412" y="6"/>
      <point x="345" y="-12"/>
      <point x="267" y="-12" type="curve" smooth="yes"/>
      <point x="141" y="-12"/>
      <point x="25" y="55"/>
      <point x="25" y="219" type="curve" smooth="yes"/>
      <point x="25" y="363"/>
      <point x="121" y="443"/>
      <point x="242" y="443" type="curve" smooth="yes"/>
      <point x="379" y="443"/>
      <point x="472" y="346"/>
      <point x="472" y="189" type="curve"/>
      <point x="170" y="189" type="line"/>
      <point x="175" y="139"/>
      <point x="206" y="98"/>
      <point x="267" y="98" type="curve" smooth="yes"/>
      <point x="334" y="98"/>
      <point x="374" y="113"/>
      <point x="411" y="144" type="curve"/>
    </contour>
    <contour>
      <point x="313" y="271" type="line"/>
      <point x="309" y="315"/>
      <point x="281" y="343"/>
      <point x="240" y="343" type="curve" smooth="yes"/>
      <point x="196" y="343"/>
      <point x="179" y="312"/>
      <point x="171" y="271" type="curve"/>
    </contour>
  </outline>
</glyph>
<glyph name="f" format="1">
  <advance width="304"/>
  <unicode hex="0066"/>
  <outline>
    <contour>
      <point x="283" y="316" type="line"/>
      <point x="226" y="316" type="line"/>
      <point x="226" y="0" type="line"/>
      <point x="71" y="0" type="line"/>
      <point x="71" y="316" type="line"/>
      <point x="17" y="316" type="line"/>
      <point x="17" y="431" type="line"/>
      <point x="71" y="431" type="line"/>
      <point x="71" y="609" type="line" smooth="yes"/>
      <point x="71" y="689"/>
      <point x="114" y="742"/>
      <point x="197" y="742" type="curve" smooth="yes"/>
      <point x="278" y="742" type="line"/>
      <point x="278" y="612" type="line"/>
      <point x="253" y="612" type="line" smooth="yes"/>
      <point x="232" y="612"/>
      <point x="226" y="590"/>
      <point x="226" y="563" type="curve" smooth="yes"/>
      <point x="226" y="431" type="line"/>
      <point x="283" y="431" type="line"/>
    </contour>
  </outline>
</glyph>
<glyph name="g" format="1">
  <advance width="562"/>
  <unicode hex="0067"/>
  <outline>
    <contour>
      <point x="512" y="9" type="line" smooth="yes"/>
      <point x="512" y="-122"/>
      <point x="422" y="-191"/>
      <point x="278" y="-191" type="curve" smooth="yes"/>
      <point x="189" y="-191"/>
      <point x="108" y="-165"/>
      <point x="70" y="-142" type="curve"/>
      <point x="120" y="-40" type="line"/>
      <point x="158" y="-62"/>
      <point x="210" y="-75"/>
      <point x="268" y="-75" type="curve" smooth="yes"/>
      <point x="337" y="-75"/>
      <point x="357" y="-39"/>
      <point x="357" y="4" type="curve" smooth="yes"/>
      <point x="357" y="49" type="line"/>
      <point x="335" y="21"/>
      <point x="289" y="-7"/>
      <point x="227" y="-7" type="curve" smooth="yes"/>
      <point x="106" y="-7"/>
      <point x="25" y="98"/>
      <point x="25" y="216" type="curve" smooth="yes"/>
      <point x="25" y="337"/>
      <point x="106" y="443"/>
      <point x="227" y="443" type="curve" smooth="yes"/>
      <point x="279" y="443"/>
      <point x="333" y="421"/>
      <point x="357" y="387" type="curve"/>
      <point x="357" y="431" type="line"/>
      <point x="512" y="431" type="line"/>
    </contour>
    <contour>
      <point x="357" y="214" type="curve" smooth="yes"/>
      <point x="357" y="273"/>
      <point x="322" y="316"/>
      <point x="268" y="316" type="curve" smooth="yes"/>
      <point x="217" y="316"/>
      <point x="180" y="273"/>
      <point x="180" y="214" type="curve" smooth="yes"/>
      <point x="180" y="155"/>
      <point x="217" y="115"/>
      <point x="268" y="115" type="curve" smooth="yes"/>
      <point x="321" y="115"/>
      <point x="357" y="156"/>
    </contour>
  </outline>
</glyph>
<glyph name="h" format="1">
  <advance width="539"/>
  <unicode hex="0068"/>
  <outline>
    <contour>
      <point x="492" y="0" type="line"/>
      <point x="337" y="0" type="line"/>
      <point x="337" y="222" type="line" smooth="yes"/>
      <point x="337" y="280"/>
      <point x="323" y="313"/>
      <point x="276" y="313" type="curve" smooth="yes"/>
      <point x="231" y="313"/>
      <point x="205" y="280"/>
      <point x="205" y="227" type="curve" smooth="yes"/>
      <point x="205" y="0" type="line"/>
      <point x="50" y="0" type="line"/>
      <point x="50" y="730" type="line"/>
      <point x="205" y="730" type="line"/>
      <point x="205" y="386" type="line"/>
      <point x="233" y="424"/>
      <point x="278" y="443"/>
      <point x="329" y="443" type="curve" smooth="yes"/>
      <point x="445" y="443"/>
      <point x="492" y="362"/>
      <point x="492" y="259" type="curve" smooth="yes"/>
    </contour>
  </outline>
</glyph>
<glyph name="i" format="1">
  <advance width="255"/>
  <unicode hex="0069"/>
  <outline>
    <contour>
      <point x="205" y="501" type="line"/>
      <point x="50" y="501" type="line"/>
      <point x="50" y="643" type="line"/>
      <point x="205" y="643" type="line"/>
    </contour>
    <contour>
      <point x="205" y="0" type="line"/>
      <point x="50" y="0" type="line"/>
      <point x="50" y="431" type="line"/>
      <point x="205" y="431" type="line"/>
    </contour>
  </outline>
</glyph>
<glyph name="j" format="1">
  <advance width="255"/>
  <unicode hex="006A"/>
  <outline>
    <contour>
      <point x="205" y="501" type="line"/>
      <point x="50" y="501" type="line"/>
      <point x="50" y="643" type="line"/>
      <point x="205" y="643" type="line"/>
    </contour>
    <contour>
      <point x="205" y="-46" type="line" smooth="yes"/>
      <point x="205" y="-126"/>
      <point x="162" y="-179"/>
      <point x="79" y="-179" type="curve" smooth="yes"/>
      <point x="-15" y="-179" type="line"/>
      <point x="-15" y="-49" type="line"/>
      <point x="23" y="-49" type="line" smooth="yes"/>
      <point x="44" y="-49"/>
      <point x="50" y="-30"/>
      <point x="50" y="0" type="curve" smooth="yes"/>
      <point x="50" y="431" type="line"/>
      <point x="205" y="431" type="line"/>
    </contour>
  </outline>
</glyph>
<glyph name="k" format="1">
  <advance width="544"/>
  <unicode hex="006B"/>
  <outline>
    <contour>
      <point x="533" y="431" type="line"/>
      <point x="358" y="247" type="line"/>
      <point x="523" y="0" type="line"/>
      <point x="339" y="0" type="line"/>
      <point x="249" y="137" type="line"/>
      <point x="205" y="90" type="line"/>
      <point x="205" y="0" type="line"/>
      <point x="50" y="0" type="line"/>
      <point x="50" y="730" type="line"/>
      <point x="205" y="730" type="line"/>
      <point x="205" y="263" type="line"/>
      <point x="360" y="431" type="line"/>
    </contour>
  </outline>
</glyph>
<glyph name="l" format="1">
  <advance width="255"/>
  <unicode hex="006C"/>
  <outline>
    <contour>
      <point x="205" y="0" type="line"/>
      <point x="50" y="0" type="line"/>
      <point x="50" y="730" type="line"/>
      <point x="205" y="730" type="line"/>
    </contour>
  </outline>
</glyph>
<glyph name="m" format="1">
  <advance width="806"/>
  <unicode hex="006D"/>
  <outline>
    <contour>
      <point x="759" y="0" type="line"/>
      <point x="604" y="0" type="line"/>
      <point x="604" y="222" type="line" smooth="yes"/>
      <point x="604" y="280"/>
      <point x="595" y="313"/>
      <point x="548" y="313" type="curve" smooth="yes"/>
      <point x="499" y="313"/>
      <point x="482" y="277"/>
      <point x="482" y="227" type="curve" smooth="yes"/>
      <point x="482" y="0" type="line"/>
      <point x="327" y="0" type="line"/>
      <point x="327" y="222" type="line" smooth="yes"/>
      <point x="327" y="280"/>
      <point x="318" y="313"/>
      <point x="271" y="313" type="curve" smooth="yes"/>
      <point x="222" y="313"/>
      <point x="205" y="277"/>
      <point x="205" y="227" type="curve" smooth="yes"/>
      <point x="205" y="0" type="line"/>
      <point x="50" y="0" type="line"/>
      <point x="50" y="431" type="line"/>
      <point x="205" y="431" type="line"/>
      <point x="205" y="386" type="line"/>
      <point x="234" y="428"/>
      <point x="273" y="443"/>
      <point x="324" y="443" type="curve" smooth="yes"/>
      <point x="392" y="443"/>
      <point x="431" y="415"/>
      <point x="456" y="372" type="curve"/>
      <point x="486" y="411"/>
      <point x="529" y="443"/>
      <point x="601" y="443" type="curve" smooth="yes"/>
      <point x="717" y="443"/>
      <point x="759" y="362"/>
      <point x="759" y="259" type="curve" smooth="yes"/>
    </contour>
  </outline>
</glyph>
<glyph name="o" format="1">
  <advance width="515"/>
  <unicode hex="006F"/>
  <outline>
    <contour>
      <point x="490" y="217" type="curve" smooth="yes"/>
      <point x="490" y="89"/>
      <point x="382" y="-12"/>
      <point x="258" y="-12" type="curve" smooth="yes"/>
      <point x="131" y="-12"/>
      <point x="25" y="85"/>
      <point x="25" y="216" type="curve" smooth="yes"/>
      <point x="25" y="344"/>
      <point x="133" y="443"/>
      <point x="257" y="443" type="curve" smooth="yes"/>
      <point x="383" y="443"/>
      <point x="490" y="348"/>
    </contour>
    <contour>
      <point x="339" y="217" type="curve" smooth="yes"/>
      <point x="339" y="265"/>
      <point x="313" y="320"/>
      <point x="257" y="320" type="curve" smooth="yes"/>
      <point x="204" y="320"/>
      <point x="176" y="265"/>
      <point x="176" y="216" type="curve" smooth="yes"/>
      <point x="176" y="166"/>
      <point x="204" y="111"/>
      <point x="258" y="111" type="curve" smooth="yes"/>
      <point x="312" y="111"/>
      <point x="339" y="167"/>
    </contour>
  </outline>
</glyph>
<glyph name="p" format="1">
  <advance width="562"/>
  <unicode hex="0070"/>
  <outline>
    <contour>
      <point x="537" y="216" type="curve" smooth="yes"/>
      <point x="537" y="98"/>
      <point x="456" y="-12"/>
      <point x="335" y="-12" type="curve" smooth="yes"/>
      <point x="283" y="-12"/>
      <point x="229" y="10"/>
      <point x="205" y="44" type="curve"/>
      <point x="205" y="-179" type="line"/>
      <point x="50" y="-179" type="line"/>
      <point x="50" y="431" type="line"/>
      <point x="205" y="431" type="line"/>
      <point x="205" y="387" type="line"/>
      <point x="229" y="421"/>
      <point x="283" y="443"/>
      <point x="335" y="443" type="curve" smooth="yes"/>
      <point x="456" y="443"/>
      <point x="537" y="337"/>
    </contour>
    <contour>
      <point x="382" y="214" type="curve" smooth="yes"/>
      <point x="382" y="273"/>
      <point x="345" y="316"/>
      <point x="294" y="316" type="curve" smooth="yes"/>
      <point x="240" y="316"/>
      <point x="205" y="273"/>
      <point x="205" y="214" type="curve" smooth="yes"/>
      <point x="205" y="156"/>
      <point x="241" y="115"/>
      <point x="294" y="115" type="curve" smooth="yes"/>
      <point x="345" y="115"/>
      <point x="382" y="155"/>
    </contour>
  </outline>
</glyph>
<glyph name="q" format="1">
  <advance width="562"/>
  <unicode hex="0071"/>
  <outline>
    <contour>
      <point x="512" y="-179" type="line"/>
      <point x="357" y="-179" type="line"/>
      <point x="357" y="44" type="line"/>
      <point x="333" y="10"/>
      <point x="279" y="-12"/>
      <point x="227" y="-12" type="curve" smooth="yes"/>
      <point x="106" y="-12"/>
      <point x="25" y="98"/>
      <point x="25" y="216" type="curve" smooth="yes"/>
      <point x="25" y="337"/>
      <point x="106" y="443"/>
      <point x="227" y="443" type="curve" smooth="yes"/>
      <point x="279" y="443"/>
      <point x="333" y="421"/>
      <point x="357" y="387" type="curve"/>
      <point x="357" y="431" type="line"/>
      <point x="512" y="431" type="line"/>
    </contour>
    <contour>
      <point x="357" y="214" type="curve" smooth="yes"/>
      <point x="357" y="273"/>
      <point x="322" y="316"/>
      <point x="268" y="316" type="curve" smooth="yes"/>
      <point x="217" y="316"/>
      <point x="180" y="273"/>
      <point x="180" y="214" type="curve" smooth="yes"/>
      <point x="180" y="155"/>
      <point x="217" y="115"/>
      <point x="268" y="115" type="curve" smooth="yes"/>
      <point x="321" y="115"/>
      <point x="357" y="156"/>
    </contour>
  </outline>
</glyph>
<glyph name="r" format="1">
  <advance width="424"/>
  <unicode hex="0072"/>
  <outline>
    <contour>
      <point x="421" y="402" type="curve"/>
      <point x="345" y="271" type="line"/>
      <point x="319" y="291"/>
      <point x="302" y="298"/>
      <point x="276" y="298" type="curve" smooth="yes"/>
      <point x="226" y="298"/>
      <point x="205" y="258"/>
      <point x="205" y="212" type="curve" smooth="yes"/>
      <point x="205" y="0" type="line"/>
      <point x="50" y="0" type="line"/>
      <point x="50" y="431" type="line"/>
      <point x="205" y="431" type="line"/>
      <point x="205" y="374" type="line"/>
      <point x="226" y="410"/>
      <point x="266" y="443"/>
      <point x="317" y="443" type="curve" smooth="yes"/>
      <point x="355" y="443"/>
      <point x="390" y="433"/>
    </contour>
  </outline>
</glyph>
<glyph name="s" format="1">
  <advance width="414"/>
  <unicode hex="0073"/>
  <outline>
    <contour>
      <point x="389" y="125" type="curve" smooth="yes"/>
      <point x="389" y="26"/>
      <point x="301" y="-12"/>
      <point x="207" y="-12" type="curve" smooth="yes"/>
      <point x="140" y="-12"/>
      <point x="67" y="4"/>
      <point x="21" y="37" type="curve"/>
      <point x="71" y="135" type="line"/>
      <point x="106" y="114"/>
      <point x="143" y="98"/>
      <point x="184" y="98" type="curve" smooth="yes"/>
      <point x="217" y="98"/>
      <point x="234" y="108"/>
      <point x="234" y="122" type="curve" smooth="yes"/>
      <point x="234" y="145"/>
      <point x="207" y="156"/>
      <point x="173" y="168" type="curve" smooth="yes"/>
      <point x="115" y="190"/>
      <point x="36" y="216"/>
      <point x="36" y="311" type="curve" smooth="yes"/>
      <point x="36" y="397"/>
      <point x="110" y="443"/>
      <point x="216" y="443" type="curve" smooth="yes"/>
      <point x="281" y="443"/>
      <point x="322" y="431"/>
      <point x="373" y="403" type="curve"/>
      <point x="329" y="307" type="line"/>
      <point x="291" y="328"/>
      <point x="253" y="335"/>
      <point x="219" y="335" type="curve" smooth="yes"/>
      <point x="195" y="335"/>
      <point x="172" y="331"/>
      <point x="172" y="312" type="curve" smooth="yes"/>
      <point x="172" y="297"/>
      <point x="207" y="286"/>
      <point x="249" y="270" type="curve" smooth="yes"/>
      <point x="312" y="247"/>
      <point x="389" y="210"/>
    </contour>
  </outline>
</glyph>
<glyph name="t" format="1">
  <advance width="344"/>
  <unicode hex="0074"/>
  <outline>
    <contour>
      <point x="312" y="0" type="line"/>
      <point x="215" y="0" type="line" smooth="yes"/>
      <point x="128" y="0"/>
      <point x="71" y="67"/>
      <point x="71" y="158" type="curve" smooth="yes"/>
      <point x="71" y="316" type="line"/>
      <point x="17" y="316" type="line"/>
      <point x="17" y="431" type="line"/>
      <point x="71" y="431" type="line"/>
      <point x="71" y="610" type="line"/>
      <point x="226" y="610" type="line"/>
      <point x="226" y="431" type="line"/>
      <point x="299" y="431" type="line"/>
      <point x="299" y="316" type="line"/>
      <point x="226" y="316" type="line"/>
      <point x="226" y="186" type="line" smooth="yes"/>
      <point x="226" y="153"/>
      <point x="243" y="130"/>
      <point x="274" y="130" type="curve" smooth="yes"/>
      <point x="312" y="130" type="line"/>
    </contour>
  </outline>
</glyph>
<glyph name="u" format="1">
  <advance width="539"/>
  <unicode hex="0075"/>
  <outline>
    <contour>
      <point x="489" y="0" type="line"/>
      <point x="334" y="0" type="line"/>
      <point x="334" y="45" type="line"/>
      <point x="306" y="7"/>
      <point x="261" y="-12"/>
      <point x="210" y="-12" type="curve" smooth="yes"/>
      <point x="94" y="-12"/>
      <point x="47" y="69"/>
      <point x="47" y="172" type="curve" smooth="yes"/>
      <point x="47" y="431" type="line"/>
      <point x="202" y="431" type="line"/>
      <point x="202" y="209" type="line" smooth="yes"/>
      <point x="202" y="151"/>
      <point x="216" y="118"/>
      <point x="263" y="118" type="curve" smooth="yes"/>
      <point x="308" y="118"/>
      <point x="334" y="151"/>
      <point x="334" y="204" type="curve" smooth="yes"/>
      <point x="334" y="431" type="line"/>
      <point x="489" y="431" type="line"/>
    </contour>
  </outline>
</glyph>
<glyph name="v" format="1">
  <advance width="510"/>
  <unicode hex="0076"/>
  <outline>
    <contour>
      <point x="500" y="431" type="line"/>
      <point x="310" y="0" type="line"/>
      <point x="204" y="0" type="line"/>
      <point x="10" y="431" type="line"/>
      <point x="175" y="431" type="line"/>
      <point x="244" y="254" type="line" smooth="yes"/>
      <point x="252" y="233"/>
      <point x="257" y="198"/>
      <point x="257" y="198" type="curve"/>
      <point x="257" y="198"/>
      <point x="262" y="232"/>
      <point x="271" y="254" type="curve" smooth="yes"/>
      <point x="340" y="431" type="line"/>
    </contour>
  </outline>
</glyph>
<glyph name="w" format="1">
  <advance width="760"/>
  <unicode hex="0077"/>
  <outline>
    <contour>
      <point x="750" y="431" type="line"/>
      <point x="575" y="0" type="line"/>
      <point x="479" y="0" type="line"/>
      <point x="397" y="162" type="line" smooth="yes"/>
      <point x="390" y="175"/>
      <point x="386" y="196"/>
      <point x="386" y="196" type="curve"/>
      <point x="386" y="196"/>
      <point x="380" y="174"/>
      <point x="374" y="161" type="curve" smooth="yes"/>
      <point x="292" y="0" type="line"/>
      <point x="195" y="0" type="line"/>
      <point x="10" y="431" type="line"/>
      <point x="171" y="431" type="line"/>
      <point x="252" y="216" type="line" smooth="yes"/>
      <point x="256" y="206"/>
      <point x="260" y="188"/>
      <point x="260" y="188" type="curve"/>
      <point x="260" y="188"/>
      <point x="264" y="204"/>
      <point x="269" y="216" type="curve" smooth="yes"/>
      <point x="384" y="467" type="line"/>
      <point x="499" y="216" type="line" smooth="yes"/>
      <point x="505" y="203"/>
      <point x="508" y="188"/>
      <point x="508" y="188" type="curve"/>
      <point x="508" y="188"/>
      <point x="511" y="204"/>
      <point x="515" y="216" type="curve" smooth="yes"/>
      <point x="594" y="431" type="line"/>
    </contour>
  </outline>
</glyph>
<glyph name="x" format="1">
  <advance width="486"/>
  <unicode hex="0078"/>
  <outline>
    <contour>
      <point x="474" y="0" type="line"/>
      <point x="308" y="0" type="line"/>
      <point x="264" y="73" type="line" smooth="yes"/>
      <point x="258" y="83"/>
      <point x="242" y="112"/>
      <point x="242" y="112" type="curve"/>
      <point x="242" y="112"/>
      <point x="229" y="89"/>
      <point x="220" y="74" type="curve" smooth="yes"/>
      <point x="175" y="0" type="line"/>
      <point x="12" y="0" type="line"/>
      <point x="161" y="221" type="line"/>
      <point x="28" y="431" type="line"/>
      <point x="192" y="431" type="line"/>
      <point x="229" y="364" type="line" smooth="yes"/>
      <point x="238" y="347"/>
      <point x="245" y="332"/>
      <point x="245" y="332" type="curve"/>
      <point x="245" y="332"/>
      <point x="251" y="346"/>
      <point x="260" y="364" type="curve" smooth="yes"/>
      <point x="294" y="431" type="line"/>
      <point x="460" y="431" type="line"/>
      <point x="325" y="220" type="line"/>
    </contour>
  </outline>
</glyph>
<glyph name="y" format="1">
  <advance width="482"/>
  <unicode hex="0079"/>
  <outline>
    <contour>
      <point x="472" y="431" type="line"/>
      <point x="291" y="-96" type="line" smooth="yes"/>
      <point x="271" y="-153"/>
      <point x="235" y="-191"/>
      <point x="168" y="-191" type="curve" smooth="yes"/>
      <point x="78" y="-191" type="line"/>
      <point x="78" y="-64" type="line"/>
      <point x="111" y="-64" type="line" smooth="yes"/>
      <point x="141" y="-64"/>
      <point x="170" y="-46"/>
      <point x="170" y="-21" type="curve" smooth="yes"/>
      <point x="170" y="-1"/>
      <point x="166" y="17"/>
      <point x="158" y="39" type="curve" smooth="yes"/>
      <point x="10" y="431" type="line"/>
      <point x="173" y="431" type="line"/>
      <point x="232" y="235" type="line" smooth="yes"/>
      <point x="240" y="210"/>
      <point x="246" y="181"/>
      <point x="246" y="181" type="curve"/>
      <point x="246" y="181"/>
      <point x="253" y="209"/>
      <point x="260" y="235" type="curve" smooth="yes"/>
      <point x="311" y="431" type="line"/>
    </contour>
  </outline>
</glyph>
<glyph name="z" format="1">
  <advance width="475"/>
  <unicode hex="007A"/>
  <outline>
    <contour>
      <point x="461" y="431" type="line"/>
      <point x="270" y="143" type="line" smooth="yes"/>
      <point x="263" y="133"/>
      <point x="251" y="118"/>
      <point x="251" y="118" type="curve"/>
      <point x="251" y="118"/>
      <point x="268" y="120"/>
      <point x="281" y="120" type="curve" smooth="yes"/>
      <point x="436" y="120" type="line"/>
      <point x="436" y="0" type="line"/>
      <point x="9" y="0" type="line"/>
      <point x="204" y="289" type="line" smooth="yes"/>
      <point x="212" y="301"/>
      <point x="222" y="312"/>
      <point x="222" y="312" type="curve"/>
      <point x="222" y="312"/>
      <point x="210" y="311"/>
      <point x="196" y="311" type="curve" smooth="yes"/>
      <point x="38" y="311" type="line"/>
      <point x="38" y="431" type="line"/>
    </contour>
  </outline>
</glyph>
<glyph name="braceleft" format="1">
  <advance width="350"/>
  <unicode hex="007B"/>
  <outline>
    <contour>
      <point x="326" y="-179" type="line"/>
      <point x="179" y="-155"/>
      <point x="100" y="-59"/>
      <point x="100" y="88" type="curve" smooth="yes"/>
      <point x="100" y="172"/>
      <point x="94" y="212"/>
      <point x="20" y="223" type="curve"/>
      <point x="20" y="339" type="line"/>
      <point x="94" y="351"/>
      <point x="100" y="391"/>
      <point x="100" y="475" type="curve" smooth="yes"/>
      <point x="100" y="622"/>
      <point x="179" y="718"/>
      <point x="326" y="742" type="curve"/>
      <point x="326" y="622" type="line"/>
      <point x="281" y="588"/>
      <point x="260" y="558"/>
      <point x="260" y="489" type="curve" smooth="yes"/>
      <point x="260" y="381"/>
      <point x="251" y="322"/>
      <point x="168" y="281" type="curve"/>
      <point x="252" y="239"/>
      <point x="260" y="181"/>
      <point x="260" y="74" type="curve" smooth="yes"/>
      <point x="260" y="5"/>
      <point x="281" y="-25"/>
      <point x="326" y="-59" type="curve"/>
    </contour>
  </outline>
</glyph>
<glyph name="bar" format="1">
  <advance width="282"/>
  <unicode hex="007C"/>
  <outline>
    <contour>
      <point x="217" y="-179" type="line"/>
      <point x="65" y="-179" type="line"/>
      <point x="65" y="730" type="line"/>
      <point x="217" y="730" type="line"/>
    </contour>
  </outline>
</glyph>
<glyph name="braceright" format="1">
  <advance width="350"/>
  <unicode hex="007D"/>
  <outline>
    <contour>
      <point x="330" y="224" type="line"/>
      <point x="256" y="212"/>
      <point x="250" y="172"/>
      <point x="250" y="88" type="curve" smooth="yes"/>
      <point x="250" y="-59"/>
      <point x="171" y="-155"/>
      <point x="24" y="-179" type="curve"/>
      <point x="24" y="-59" type="line"/>
      <point x="69" y="-25"/>
      <point x="90" y="5"/>
      <point x="90" y="74" type="curve" smooth="yes"/>
      <point x="90" y="182"/>
      <point x="99" y="241"/>
      <point x="182" y="282" type="curve"/>
      <point x="98" y="324"/>
      <point x="90" y="382"/>
      <point x="90" y="489" type="curve" smooth="yes"/>
      <point x="90" y="558"/>
      <point x="69" y="588"/>
      <point x="24" y="622" type="curve"/>
      <point x="24" y="742" type="line"/>
      <point x="171" y="718"/>
      <point x="250" y="622"/>
      <point x="250" y="475" type="curve" smooth="yes"/>
      <point x="250" y="391"/>
      <point x="256" y="351"/>
      <point x="330" y="340" type="curve"/>
    </contour>
  </outline>
</glyph>
<glyph name="asciitilde" format="1">
  <advance width="560"/>
  <unicode hex="007E"/>
  <outline>
    <contour>
      <point x="520" y="474" type="line"/>
      <point x="520" y="364"/>
      <point x="479" y="257"/>
      <point x="387" y="257" type="curve" smooth="yes"/>
      <point x="346" y="257"/>
      <point x="311" y="274"/>
      <point x="281" y="292" type="curve" smooth="yes"/>
      <point x="246" y="313"/>
      <point x="219" y="337"/>
      <point x="202" y="337" type="curve" smooth="yes"/>
      <point x="181" y="337"/>
      <point x="174" y="299"/>
      <point x="174" y="260" type="curve"/>
      <point x="40" y="260" type="line"/>
      <point x="40" y="370"/>
      <point x="77" y="476"/>
      <point x="173" y="476" type="curve" smooth="yes"/>
      <point x="213" y="476"/>
      <point x="250" y="458"/>
      <point x="281" y="438" type="curve" smooth="yes"/>
      <point x="314" y="418"/>
      <point x="341" y="396"/>
      <point x="358" y="396" type="curve" smooth="yes"/>
      <point x="379" y="396"/>
      <point x="386" y="434"/>
      <point x="386" y="474" type="curve"/>
    </contour>
  </outline>
</glyph>
<glyph name="exclamdown" format="1">
  <advance width="306"/>
  <unicode hex="00A1"/>
  <outline>
    <contour>
      <point x="231" y="584" type="line"/>
      <point x="75" y="584" type="line"/>
      <point x="75" y="730" type="line"/>
      <point x="231" y="730" type="line"/>
    </contour>
    <contour>
      <point x="231" y="0" type="line"/>
      <point x="75" y="0" type="line"/>
      <point x="75" y="269" type="line"/>
      <point x="98" y="530" type="line"/>
      <point x="208" y="530" type="line"/>
      <point x="231" y="269" type="line"/>
    </contour>
  </outline>
</glyph>
<glyph name="cent" format="1">
  <advance width="465"/>
  <unicode hex="00A2"/>
  <outline>
    <contour>
      <point x="451" y="81" type="line"/>
      <point x="405" y="24"/>
      <point x="358" y="-5"/>
      <point x="290" y="-11" type="curve"/>
      <point x="290" y="-79" type="line"/>
      <point x="242" y="-79" type="line"/>
      <point x="242" y="-11" type="line"/>
      <point x="116" y="-2"/>
      <point x="25" y="92"/>
      <point x="25" y="214" type="curve" smooth="yes"/>
      <point x="25" y="333"/>
      <point x="115" y="433"/>
      <point x="242" y="442" type="curve"/>
      <point x="242" y="495" type="line"/>
      <point x="290" y="495" type="line"/>
      <point x="290" y="442" type="line"/>
      <point x="350" y="436"/>
      <point x="397" y="411"/>
      <point x="437" y="363" type="curve"/>
      <point x="348" y="280" type="line"/>
      <point x="331" y="299"/>
      <point x="311" y="311"/>
      <point x="290" y="316" type="curve"/>
      <point x="290" y="113" type="line"/>
      <point x="313" y="119"/>
      <point x="329" y="133"/>
      <point x="347" y="154" type="curve"/>
    </contour>
    <contour>
      <point x="242" y="112" type="curve"/>
      <point x="242" y="318" type="line"/>
      <point x="198" y="308"/>
      <point x="169" y="267"/>
      <point x="169" y="214" type="curve" smooth="yes"/>
      <point x="169" y="168"/>
      <point x="197" y="123"/>
    </contour>
  </outline>
</glyph>
<glyph name="sterling" format="1">
  <advance width="755"/>
  <unicode hex="00A3"/>
  <outline>
    <contour>
      <point x="702" y="155" type="line" smooth="yes"/>
      <point x="702" y="53"/>
      <point x="651" y="-12"/>
      <point x="574" y="-12" type="curve" smooth="yes"/>
      <point x="511" y="-12"/>
      <point x="450" y="20"/>
      <point x="392" y="55" type="curve"/>
      <point x="352" y="12"/>
      <point x="287" y="-12"/>
      <point x="207" y="-12" type="curve" smooth="yes"/>
      <point x="129" y="-12"/>
      <point x="43" y="30"/>
      <point x="43" y="108" type="curve" smooth="yes"/>
      <point x="43" y="186"/>
      <point x="116" y="228"/>
      <point x="189" y="228" type="curve" smooth="yes"/>
      <point x="230" y="228"/>
      <point x="265" y="225"/>
      <point x="296" y="214" type="curve"/>
      <point x="291" y="241"/>
      <point x="273" y="269"/>
      <point x="254" y="292" type="curve"/>
      <point x="72" y="292" type="line"/>
      <point x="72" y="337" type="line"/>
      <point x="213" y="337" type="line"/>
      <point x="199" y="353"/>
      <point x="184" y="369"/>
      <point x="170" y="386" type="curve"/>
      <point x="72" y="386" type="line"/>
      <point x="72" y="431" type="line"/>
      <point x="140" y="431" type="line"/>
      <point x="121" y="465"/>
      <point x="109" y="503"/>
      <point x="109" y="552" type="curve" smooth="yes"/>
      <point x="109" y="676"/>
      <point x="250" y="742"/>
      <point x="379" y="742" type="curve" smooth="yes"/>
      <point x="533" y="742"/>
      <point x="660" y="675"/>
      <point x="660" y="519" type="curve"/>
      <point x="498" y="519" type="line"/>
      <point x="498" y="591"/>
      <point x="448" y="622"/>
      <point x="379" y="622" type="curve" smooth="yes"/>
      <point x="327" y="622"/>
      <point x="274" y="583"/>
      <point x="274" y="537" type="curve" smooth="yes"/>
      <point x="274" y="494"/>
      <point x="294" y="463"/>
      <point x="321" y="431" type="curve"/>
      <point x="535" y="431" type="line"/>
      <point x="535" y="386" type="line"/>
      <point x="359" y="386" type="line"/>
      <point x="372" y="371"/>
      <point x="384" y="355"/>
      <point x="395" y="337" type="curve"/>
      <point x="535" y="337" type="line"/>
      <point x="535" y="292" type="line"/>
      <point x="418" y="292" type="line"/>
      <point x="430" y="260"/>
      <point x="438" y="222"/>
      <point x="438" y="174" type="curve" smooth="yes"/>
      <point x="438" y="169" type="line"/>
      <point x="468" y="155"/>
      <point x="493" y="143"/>
      <point x="525" y="143" type="curve" smooth="yes"/>
      <point x="558" y="143"/>
      <point x="567" y="160"/>
      <point x="567" y="183" type="curve" smooth="yes"/>
      <point x="567" y="214" type="line"/>
      <point x="702" y="214" type="line"/>
    </contour>
    <contour>
      <point x="285" y="119" type="curve"/>
      <point x="253" y="136"/>
      <point x="223" y="147"/>
      <point x="195" y="147" type="curve" smooth="yes"/>
      <point x="170" y="147"/>
      <point x="145" y="138"/>
      <point x="145" y="108" type="curve" smooth="yes"/>
      <point x="145" y="81"/>
      <point x="174" y="72"/>
      <point x="201" y="72" type="curve" smooth="yes"/>
      <point x="240" y="72"/>
      <point x="269" y="90"/>
    </contour>
  </outline>
</glyph>
<glyph name="yen" format="1">
  <advance width="690"/>
  <unicode hex="00A5"/>
  <outline>
    <contour>
      <point x="675" y="730" type="line"/>
      <point x="425" y="301" type="line"/>
      <point x="568" y="301" type="line"/>
      <point x="568" y="224" type="line"/>
      <point x="423" y="224" type="line"/>
      <point x="423" y="163" type="line"/>
      <point x="568" y="163" type="line"/>
      <point x="568" y="86" type="line"/>
      <point x="423" y="86" type="line"/>
      <point x="423" y="0" type="line"/>
      <point x="263" y="0" type="line"/>
      <point x="263" y="86" type="line"/>
      <point x="120" y="86" type="line"/>
      <point x="120" y="163" type="line"/>
      <point x="263" y="163" type="line"/>
      <point x="263" y="224" type="line"/>
      <point x="120" y="224" type="line"/>
      <point x="120" y="301" type="line"/>
      <point x="260" y="301" type="line"/>
      <point x="15" y="730" type="line"/>
      <point x="197" y="730" type="line"/>
      <point x="331" y="477" type="line" smooth="yes"/>
      <point x="339" y="461"/>
      <point x="345" y="438"/>
      <point x="345" y="438" type="curve"/>
      <point x="345" y="438"/>
      <point x="351" y="461"/>
      <point x="359" y="477" type="curve" smooth="yes"/>
      <point x="492" y="730" type="line"/>
    </contour>
  </outline>
</glyph>
<glyph name="brokenbar" format="1">
  <advance width="282"/>
  <unicode hex="00A6"/>
  <outline>
    <contour>
      <point x="65" y="351" type="line"/>
      <point x="65" y="730" type="line"/>
      <point x="217" y="730" type="line"/>
      <point x="217" y="351" type="line"/>
    </contour>
    <contour>
      <point x="217" y="200" type="line"/>
      <point x="217" y="-179" type="line"/>
      <point x="65" y="-179" type="line"/>
      <point x="65" y="200" type="line"/>
    </contour>
  </outline>
</glyph>
<glyph name="section" format="1">
  <advance width="714"/>
  <unicode hex="00A7"/>
  <outline>
    <contour>
      <point x="669" y="284" type="curve" smooth="yes"/>
      <point x="669" y="201"/>
      <point x="615" y="148"/>
      <point x="560" y="113" type="curve"/>
      <point x="587" y="85"/>
      <point x="601" y="47"/>
      <point x="601" y="-5" type="curve" smooth="yes"/>
      <point x="601" y="-115"/>
      <point x="500" y="-191"/>
      <point x="362" y="-191" type="curve" smooth="yes"/>
      <point x="245" y="-191"/>
      <point x="172" y="-161"/>
      <point x="105" y="-115" type="curve"/>
      <point x="179" y="5" type="line"/>
      <point x="226" y="-28"/>
      <point x="291" y="-56"/>
      <point x="368" y="-56" type="curve" smooth="yes"/>
      <point x="421" y="-56"/>
      <point x="445" y="-37"/>
      <point x="445" y="-14" type="curve" smooth="yes"/>
      <point x="445" y="12"/>
      <point x="435" y="27"/>
      <point x="368" y="46" type="curve" smooth="yes"/>
      <point x="221" y="87" type="line" smooth="yes"/>
      <point x="116" y="116"/>
      <point x="45" y="168"/>
      <point x="45" y="267" type="curve" smooth="yes"/>
      <point x="45" y="350"/>
      <point x="99" y="403"/>
      <point x="154" y="438" type="curve"/>
      <point x="127" y="466"/>
      <point x="113" y="504"/>
      <point x="113" y="556" type="curve" smooth="yes"/>
      <point x="113" y="666"/>
      <point x="214" y="742"/>
      <point x="352" y="742" type="curve" smooth="yes"/>
      <point x="469" y="742"/>
      <point x="542" y="712"/>
      <point x="609" y="666" type="curve"/>
      <point x="535" y="546" type="line"/>
      <point x="488" y="579"/>
      <point x="423" y="607"/>
      <point x="346" y="607" type="curve" smooth="yes"/>
      <point x="293" y="607"/>
      <point x="269" y="588"/>
      <point x="269" y="565" type="curve" smooth="yes"/>
      <point x="269" y="539"/>
      <point x="279" y="524"/>
      <point x="346" y="505" type="curve" smooth="yes"/>
      <point x="493" y="464" type="line" smooth="yes"/>
      <point x="598" y="435"/>
      <point x="669" y="383"/>
    </contour>
    <contour>
      <point x="514" y="259" type="curve" smooth="yes"/>
      <point x="514" y="301"/>
      <point x="490" y="318"/>
      <point x="409" y="340" type="curve" smooth="yes"/>
      <point x="275" y="377" type="line"/>
      <point x="234" y="351"/>
      <point x="200" y="321"/>
      <point x="200" y="292" type="curve" smooth="yes"/>
      <point x="200" y="250"/>
      <point x="224" y="233"/>
      <point x="305" y="211" type="curve" smooth="yes"/>
      <point x="439" y="174" type="line"/>
      <point x="480" y="200"/>
      <point x="514" y="230"/>
    </contour>
  </outline>
</glyph>
<glyph name="dieresis" format="1">
  <advance width="500"/>
  <unicode hex="00A8"/>
  <outline>
    <contour>
      <point x="420" y="495" type="line"/>
      <point x="294" y="495" type="line"/>
      <point x="294" y="625" type="line"/>
      <point x="420" y="625" type="line"/>
    </contour>
    <contour>
      <point x="206" y="495" type="line"/>
      <point x="80" y="495" type="line"/>
      <point x="80" y="625" type="line"/>
      <point x="206" y="625" type="line"/>
    </contour>
  </outline>
</glyph>
<glyph name="ordfeminine" format="1">
  <advance width="451"/>
  <unicode hex="00AA"/>
  <outline>
    <contour>
      <point x="377" y="400" type="line"/>
      <point x="291" y="400" type="line"/>
      <point x="291" y="424" type="line"/>
      <point x="261" y="401"/>
      <point x="227" y="390"/>
      <point x="187" y="390" type="curve" smooth="yes"/>
      <point x="103" y="390"/>
      <point x="63" y="441"/>
      <point x="63" y="502" type="curve" smooth="yes"/>
      <point x="63" y="581"/>
      <point x="141" y="624"/>
      <point x="243" y="624" type="curve" smooth="yes"/>
      <point x="293" y="624" type="line"/>
      <point x="293" y="657"/>
      <point x="276" y="668"/>
      <point x="227" y="668" type="curve" smooth="yes"/>
      <point x="185" y="668"/>
      <point x="153" y="663"/>
      <point x="124" y="650" type="curve"/>
      <point x="98" y="717" type="line"/>
      <point x="129" y="735"/>
      <point x="181" y="742"/>
      <point x="218" y="742" type="curve" smooth="yes"/>
      <point x="327" y="742"/>
      <point x="377" y="705"/>
      <point x="377" y="633" type="curve" smooth="yes"/>
    </contour>
    <contour>
      <point x="377" y="255" type="line"/>
      <point x="63" y="255" type="line"/>
      <point x="63" y="336" type="line"/>
      <point x="377" y="336" type="line"/>
    </contour>
    <contour>
      <point x="291" y="494" type="curve"/>
      <point x="291" y="552" type="line"/>
      <point x="238" y="552" type="line" smooth="yes"/>
      <point x="187" y="552"/>
      <point x="152" y="538"/>
      <point x="152" y="502" type="curve" smooth="yes"/>
      <point x="152" y="478"/>
      <point x="176" y="467"/>
      <point x="208" y="467" type="curve" smooth="yes"/>
      <point x="242" y="467"/>
      <point x="261" y="473"/>
    </contour>
  </outline>
</glyph>
<glyph name="guillemotleft" format="1">
  <advance width="450"/>
  <unicode hex="00AB"/>
  <outline>
    <contour>
      <point x="400" y="41" type="line"/>
      <point x="248" y="152" type="line"/>
      <point x="248" y="288" type="line"/>
      <point x="400" y="399" type="line"/>
      <point x="400" y="268" type="line"/>
      <point x="335" y="220" type="line"/>
      <point x="400" y="172" type="line"/>
    </contour>
    <contour>
      <point x="192" y="41" type="line"/>
      <point x="40" y="152" type="line"/>
      <point x="40" y="288" type="line"/>
      <point x="192" y="399" type="line"/>
      <point x="192" y="268" type="line"/>
      <point x="127" y="220" type="line"/>
      <point x="192" y="172" type="line"/>
    </contour>
  </outline>
</glyph>
<glyph name="degree" format="1">
  <advance width="426"/>
  <unicode hex="00B0"/>
  <outline>
    <contour>
      <point x="401" y="554" type="curve" smooth="yes"/>
      <point x="401" y="450"/>
      <point x="317" y="366"/>
      <point x="213" y="366" type="curve" smooth="yes"/>
      <point x="109" y="366"/>
      <point x="25" y="450"/>
      <point x="25" y="554" type="curve" smooth="yes"/>
      <point x="25" y="658"/>
      <point x="109" y="742"/>
      <point x="213" y="742" type="curve" smooth="yes"/>
      <point x="317" y="742"/>
      <point x="401" y="658"/>
    </contour>
    <contour>
      <point x="307" y="554" type="curve" smooth="yes"/>
      <point x="307" y="605"/>
      <point x="264" y="648"/>
      <point x="213" y="648" type="curve" smooth="yes"/>
      <point x="162" y="648"/>
      <point x="119" y="605"/>
      <point x="119" y="554" type="curve" smooth="yes"/>
      <point x="119" y="503"/>
      <point x="162" y="460"/>
      <point x="213" y="460" type="curve" smooth="yes"/>
      <point x="264" y="460"/>
      <point x="307" y="503"/>
    </contour>
  </outline>
</glyph>
<glyph name="twosuperior" format="1">
  <advance width="458"/>
  <unicode hex="00B2"/>
  <outline>
    <contour>
      <point x="295" y="409" type="line"/>
      <point x="387" y="409" type="line"/>
      <point x="387" y="289" type="line"/>
      <point x="45" y="289" type="line"/>
      <point x="239" y="512" type="line" smooth="yes"/>
      <point x="254" y="529"/>
      <point x="265" y="550"/>
      <point x="265" y="575" type="curve" smooth="yes"/>
      <point x="265" y="597"/>
      <point x="245" y="621"/>
      <point x="215" y="621" type="curve" smooth="yes"/>
      <point x="201" y="621"/>
      <point x="165" y="611"/>
      <point x="165" y="570" type="curve" smooth="yes"/>
      <point x="165" y="556" type="line"/>
      <point x="48" y="556" type="line"/>
      <point x="48" y="574" type="line" smooth="yes"/>
      <point x="48" y="682"/>
      <point x="125" y="740"/>
      <point x="221" y="740" type="curve" smooth="yes"/>
      <point x="338" y="740"/>
      <point x="390" y="660"/>
      <point x="390" y="585" type="curve" smooth="yes"/>
      <point x="390" y="547"/>
      <point x="377" y="507"/>
      <point x="350" y="475" type="curve" smooth="yes"/>
    </contour>
  </outline>
</glyph>
<glyph name="acute" format="1">
  <advance width="500"/>
  <unicode hex="00B4"/>
  <outline>
    <contour>
      <point x="380" y="662" type="line"/>
      <point x="271" y="495" type="line"/>
      <point x="160" y="495" type="line"/>
      <point x="237" y="662" type="line"/>
    </contour>
  </outline>
</glyph>
<glyph name="paragraph" format="1">
  <advance width="790"/>
  <unicode hex="00B6"/>
  <outline>
    <contour>
      <point x="715" y="-179" type="line"/>
      <point x="582" y="-179" type="line"/>
      <point x="582" y="596" type="line"/>
      <point x="508" y="596" type="line"/>
      <point x="508" y="-179" type="line"/>
      <point x="375" y="-179" type="line"/>
      <point x="375" y="207" type="line"/>
      <point x="286" y="207" type="line" smooth="yes"/>
      <point x="125" y="207"/>
      <point x="27" y="337"/>
      <point x="27" y="465" type="curve" smooth="yes"/>
      <point x="27" y="604"/>
      <point x="125" y="730"/>
      <point x="306" y="730" type="curve" smooth="yes"/>
      <point x="715" y="730" type="line"/>
    </contour>
    <contour>
      <point x="375" y="341" type="line"/>
      <point x="375" y="596" type="line"/>
      <point x="311" y="596" type="line" smooth="yes"/>
      <point x="225" y="596"/>
      <point x="179" y="546"/>
      <point x="179" y="471" type="curve" smooth="yes"/>
      <point x="179" y="394"/>
      <point x="225" y="341"/>
      <point x="305" y="341" type="curve" smooth="yes"/>
    </contour>
  </outline>
</glyph>
<glyph name="periodcentered" format="1">
  <advance width="250"/>
  <unicode hex="00B7"/>
  <outline>
    <contour>
      <point x="200" y="276" type="line"/>
      <point x="50" y="276" type="line"/>
      <point x="50" y="427" type="line"/>
      <point x="200" y="427" type="line"/>
    </contour>
  </outline>
</glyph>
<glyph name="cedilla" format="1">
  <advance width="500"/>
  <unicode hex="00B8"/>
  <outline>
    <contour>
      <point x="350" y="-91" type="curve" smooth="yes"/>
      <point x="350" y="-145"/>
      <point x="295" y="-179"/>
      <point x="240" y="-179" type="curve" smooth="yes"/>
      <point x="199" y="-179"/>
      <point x="164" y="-166"/>
      <point x="136" y="-147" type="curve"/>
      <point x="168" y="-104" type="line"/>
      <point x="190" y="-118"/>
      <point x="211" y="-124"/>
      <point x="237" y="-124" type="curve" smooth="yes"/>
      <point x="256" y="-124"/>
      <point x="271" y="-115"/>
      <point x="271" y="-97" type="curve" smooth="yes"/>
      <point x="271" y="-81"/>
      <point x="254" y="-78"/>
      <point x="238" y="-78" type="curve" smooth="yes"/>
      <point x="227" y="-78"/>
      <point x="211" y="-79"/>
      <point x="200" y="-83" type="curve"/>
      <point x="179" y="-49" type="line"/>
      <point x="227" y="14" type="line"/>
      <point x="293" y="14" type="line"/>
      <point x="260" y="-28" type="line"/>
      <point x="314" y="-25"/>
      <point x="350" y="-54"/>
    </contour>
  </outline>
</glyph>
<glyph name="ordmasculine" format="1">
  <advance width="486"/>
  <unicode hex="00BA"/>
  <outline>
    <contour>
      <point x="418" y="572" type="curve" smooth="yes"/>
      <point x="418" y="471"/>
      <point x="343" y="390"/>
      <point x="242" y="390" type="curve" smooth="yes"/>
      <point x="143" y="390"/>
      <point x="67" y="460"/>
      <point x="67" y="569" type="curve" smooth="yes"/>
      <point x="67" y="658"/>
      <point x="136" y="742"/>
      <point x="240" y="742" type="curve" smooth="yes"/>
      <point x="344" y="742"/>
      <point x="418" y="662"/>
    </contour>
    <contour>
      <point x="418" y="255" type="line"/>
      <point x="67" y="255" type="line"/>
      <point x="67" y="336" type="line"/>
      <point x="418" y="336" type="line"/>
    </contour>
    <contour>
      <point x="324" y="567" type="curve" smooth="yes"/>
      <point x="324" y="622"/>
      <point x="289" y="655"/>
      <point x="240" y="655" type="curve" smooth="yes"/>
      <point x="193" y="655"/>
      <point x="161" y="615"/>
      <point x="161" y="569" type="curve" smooth="yes"/>
      <point x="161" y="512"/>
      <point x="193" y="478"/>
      <point x="239" y="478" type="curve" smooth="yes"/>
      <point x="297" y="478"/>
      <point x="324" y="517"/>
    </contour>
  </outline>
</glyph>
<glyph name="guillemotright" format="1">
  <advance width="450"/>
  <unicode hex="00BB"/>
  <outline>
    <contour>
      <point x="410" y="152" type="line"/>
      <point x="258" y="41" type="line"/>
      <point x="258" y="172" type="line"/>
      <point x="323" y="220" type="line"/>
      <point x="258" y="268" type="line"/>
      <point x="258" y="399" type="line"/>
      <point x="410" y="288" type="line"/>
    </contour>
    <contour>
      <point x="202" y="152" type="line"/>
      <point x="50" y="41" type="line"/>
      <point x="50" y="172" type="line"/>
      <point x="115" y="220" type="line"/>
      <point x="50" y="268" type="line"/>
      <point x="50" y="399" type="line"/>
      <point x="202" y="288" type="line"/>
    </contour>
  </outline>
</glyph>
<glyph name="onequarter" format="1">
  <advance width="1022"/>
  <unicode hex="00BC"/>
  <outline>
    <contour>
      <point x="121" y="279" type="line"/>
      <point x="121" y="555" type="line"/>
      <point x="106" y="541"/>
      <point x="77" y="532"/>
      <point x="45" y="530" type="curve"/>
      <point x="45" y="651" type="line"/>
      <point x="104" y="659"/>
      <point x="127" y="670"/>
      <point x="155" y="729" type="curve"/>
      <point x="258" y="729" type="line"/>
      <point x="258" y="279" type="line"/>
    </contour>
    <contour>
      <point x="793" y="730" type="line"/>
      <point x="294" y="0" type="line"/>
      <point x="145" y="0" type="line"/>
      <point x="644" y="730" type="line"/>
    </contour>
    <contour>
      <point x="958" y="89" type="line"/>
      <point x="916" y="89" type="line"/>
      <point x="916" y="0" type="line"/>
      <point x="786" y="0" type="line"/>
      <point x="786" y="89" type="line"/>
      <point x="601" y="89" type="line"/>
      <point x="601" y="176" type="line"/>
      <point x="776" y="450" type="line"/>
      <point x="916" y="450" type="line"/>
      <point x="916" y="189" type="line"/>
      <point x="958" y="189" type="line"/>
    </contour>
    <contour>
      <point x="786" y="189" type="line"/>
      <point x="786" y="312" type="line"/>
      <point x="705" y="189" type="line"/>
    </contour>
  </outline>
</glyph>
<glyph name="onehalf" format="1">
  <advance width="1014"/>
  <unicode hex="00BD"/>
  <outline>
    <contour>
      <point x="121" y="279" type="line"/>
      <point x="121" y="555" type="line"/>
      <point x="106" y="541"/>
      <point x="77" y="532"/>
      <point x="45" y="530" type="curve"/>
      <point x="45" y="651" type="line"/>
      <point x="104" y="659"/>
      <point x="127" y="670"/>
      <point x="155" y="729" type="curve"/>
      <point x="258" y="729" type="line"/>
      <point x="258" y="279" type="line"/>
    </contour>
    <contour>
      <point x="793" y="730" type="line"/>
      <point x="294" y="0" type="line"/>
      <point x="145" y="0" type="line"/>
      <point x="644" y="730" type="line"/>
    </contour>
    <contour>
      <point x="857" y="120" type="line"/>
      <point x="949" y="120" type="line"/>
      <point x="949" y="0" type="line"/>
      <point x="607" y="0" type="line"/>
      <point x="801" y="223" type="line" smooth="yes"/>
      <point x="816" y="240"/>
      <point x="827" y="261"/>
      <point x="827" y="286" type="curve" smooth="yes"/>
      <point x="827" y="308"/>
      <point x="807" y="332"/>
      <point x="777" y="332" type="curve" smooth="yes"/>
      <point x="763" y="332"/>
      <point x="727" y="322"/>
      <point x="727" y="281" type="curve" smooth="yes"/>
      <point x="727" y="267" type="line"/>
      <point x="610" y="267" type="line"/>
      <point x="610" y="285" type="line" smooth="yes"/>
      <point x="610" y="393"/>
      <point x="687" y="451"/>
      <point x="783" y="451" type="curve" smooth="yes"/>
      <point x="900" y="451"/>
      <point x="952" y="371"/>
      <point x="952" y="296" type="curve" smooth="yes"/>
      <point x="952" y="258"/>
      <point x="939" y="218"/>
      <point x="912" y="186" type="curve" smooth="yes"/>
    </contour>
  </outline>
</glyph>
<glyph name="threequarters" format="1">
  <advance width="1122"/>
  <unicode hex="00BE"/>
  <outline>
    <contour>
      <point x="381" y="413" type="curve" smooth="yes"/>
      <point x="381" y="333"/>
      <point x="323" y="264"/>
      <point x="197" y="264" type="curve" smooth="yes"/>
      <point x="140" y="264"/>
      <point x="77" y="286"/>
      <point x="46" y="318" type="curve"/>
      <point x="109" y="408" type="line"/>
      <point x="131" y="388"/>
      <point x="162" y="374"/>
      <point x="197" y="374" type="curve" smooth="yes"/>
      <point x="230" y="374"/>
      <point x="256" y="392"/>
      <point x="256" y="423" type="curve" smooth="yes"/>
      <point x="256" y="456"/>
      <point x="232" y="467"/>
      <point x="188" y="467" type="curve" smooth="yes"/>
      <point x="165" y="467" type="line"/>
      <point x="165" y="552" type="line"/>
      <point x="197" y="552" type="line" smooth="yes"/>
      <point x="230" y="552"/>
      <point x="247" y="562"/>
      <point x="247" y="594" type="curve" smooth="yes"/>
      <point x="247" y="617"/>
      <point x="224" y="631"/>
      <point x="197" y="631" type="curve" smooth="yes"/>
      <point x="165" y="631"/>
      <point x="145" y="626"/>
      <point x="124" y="608" type="curve"/>
      <point x="66" y="701" type="line"/>
      <point x="104" y="731"/>
      <point x="156" y="741"/>
      <point x="204" y="741" type="curve" smooth="yes"/>
      <point x="298" y="741"/>
      <point x="372" y="682"/>
      <point x="372" y="603" type="curve" smooth="yes"/>
      <point x="372" y="560"/>
      <point x="340" y="525"/>
      <point x="315" y="515" type="curve"/>
      <point x="348" y="504"/>
      <point x="381" y="466"/>
    </contour>
    <contour>
      <point x="893" y="730" type="line"/>
      <point x="394" y="0" type="line"/>
      <point x="245" y="0" type="line"/>
      <point x="744" y="730" type="line"/>
    </contour>
    <contour>
      <point x="1058" y="89" type="line"/>
      <point x="1016" y="89" type="line"/>
      <point x="1016" y="0" type="line"/>
      <point x="886" y="0" type="line"/>
      <point x="886" y="89" type="line"/>
      <point x="701" y="89" type="line"/>
      <point x="701" y="176" type="line"/>
      <point x="876" y="450" type="line"/>
      <point x="1016" y="450" type="line"/>
      <point x="1016" y="189" type="line"/>
      <point x="1058" y="189" type="line"/>
    </contour>
    <contour>
      <point x="886" y="189" type="line"/>
      <point x="886" y="312" type="line"/>
      <point x="805" y="189" type="line"/>
    </contour>
  </outline>
</glyph>
<glyph name="questiondown" format="1">
  <advance width="460"/>
  <unicode hex="00BF"/>
  <outline>
    <contour>
      <point x="341" y="584" type="line"/>
      <point x="185" y="584" type="line"/>
      <point x="185" y="730" type="line"/>
      <point x="341" y="730" type="line"/>
    </contour>
    <contour>
      <point x="445" y="69" type="line"/>
      <point x="394" y="16"/>
      <point x="333" y="-12"/>
      <point x="252" y="-12" type="curve" smooth="yes"/>
      <point x="122" y="-12"/>
      <point x="28" y="62"/>
      <point x="28" y="175" type="curve" smooth="yes"/>
      <point x="28" y="251"/>
      <point x="79" y="312"/>
      <point x="126" y="369" type="curve" smooth="yes"/>
      <point x="165" y="417"/>
      <point x="191" y="462"/>
      <point x="191" y="512" type="curve" smooth="yes"/>
      <point x="191" y="535" type="line"/>
      <point x="335" y="535" type="line"/>
      <point x="335" y="512" type="line" smooth="yes"/>
      <point x="335" y="443"/>
      <point x="307" y="386"/>
      <point x="267" y="336" type="curve" smooth="yes"/>
      <point x="226" y="283"/>
      <point x="183" y="237"/>
      <point x="183" y="193" type="curve" smooth="yes"/>
      <point x="183" y="150"/>
      <point x="213" y="114"/>
      <point x="252" y="114" type="curve" smooth="yes"/>
      <point x="304" y="114"/>
      <point x="333" y="139"/>
      <point x="363" y="170" type="curve"/>
    </contour>
  </outline>
</glyph>
<glyph name="Adieresis" format="1">
  <advance width="710"/>
  <unicode hex="00C4"/>
  <outline>
    <contour>
      <point x="666" y="590" type="line"/>
      <point x="540" y="590" type="line"/>
      <point x="540" y="730" type="line"/>
      <point x="666" y="730" type="line"/>
    </contour>
    <contour>
      <point x="166" y="590" type="line"/>
      <point x="40" y="590" type="line"/>
      <point x="40" y="730" type="line"/>
      <point x="166" y="730" type="line"/>
    </contour>
    <component base="A"/>
  </outline>
</glyph>
<glyph name="Aring" format="1">
  <advance width="710"/>
  <unicode hex="00C5"/>
  <outline>
    <contour>
      <point x="695" y="0" type="line"/>
      <point x="519" y="0" type="line"/>
      <point x="463" y="184" type="line"/>
      <point x="241" y="184" type="line"/>
      <point x="184" y="0" type="line"/>
      <point x="15" y="0" type="line"/>
      <point x="271" y="716" type="line"/>
      <point x="243" y="740"/>
      <point x="224" y="776"/>
      <point x="224" y="814" type="curve" smooth="yes"/>
      <point x="224" y="883"/>
      <point x="284" y="943"/>
      <point x="353" y="943" type="curve" smooth="yes"/>
      <point x="422" y="943"/>
      <point x="482" y="883"/>
      <point x="482" y="814" type="curve" smooth="yes"/>
      <point x="482" y="776"/>
      <point x="463" y="740"/>
      <point x="435" y="716" type="curve"/>
    </contour>
    <contour>
      <point x="406" y="814" type="curve" smooth="yes"/>
      <point x="406" y="844"/>
      <point x="383" y="867"/>
      <point x="353" y="867" type="curve" smooth="yes"/>
      <point x="323" y="867"/>
      <point x="300" y="844"/>
      <point x="300" y="814" type="curve" smooth="yes"/>
      <point x="300" y="784"/>
      <point x="323" y="761"/>
      <point x="353" y="761" type="curve" smooth="yes"/>
      <point x="383" y="761"/>
      <point x="406" y="784"/>
    </contour>
    <contour>
      <point x="423" y="319" type="line"/>
      <point x="369" y="497" type="line" smooth="yes"/>
      <point x="361" y="523"/>
      <point x="353" y="556"/>
      <point x="353" y="556" type="curve"/>
      <point x="353" y="556"/>
      <point x="346" y="524"/>
      <point x="338" y="497" type="curve" smooth="yes"/>
      <point x="283" y="319" type="line"/>
    </contour>
  </outline>
</glyph>
<glyph name="AE" format="1">
  <advance width="953"/>
  <unicode hex="00C6"/>
  <outline>
    <contour>
      <point x="896" y="0" type="line"/>
      <point x="471" y="0" type="line"/>
      <point x="471" y="189" type="line"/>
      <point x="268" y="189" type="line"/>
      <point x="170" y="0" type="line"/>
      <point x="10" y="0" type="line"/>
      <point x="388" y="730" type="line"/>
      <point x="881" y="730" type="line"/>
      <point x="881" y="595" type="line"/>
      <point x="616" y="595" type="line"/>
      <point x="616" y="424" type="line"/>
      <point x="862" y="424" type="line"/>
      <point x="862" y="289" type="line"/>
      <point x="616" y="289" type="line"/>
      <point x="616" y="135" type="line"/>
      <point x="896" y="135" type="line"/>
    </contour>
    <contour>
      <point x="471" y="319" type="line"/>
      <point x="471" y="596" type="line"/>
      <point x="330" y="319" type="line"/>
    </contour>
  </outline>
</glyph>
<glyph name="Ccedilla" format="1">
  <advance width="720"/>
  <unicode hex="00C7"/>
  <outline>
    <contour>
      <point x="689" y="106" type="line"/>
      <point x="621" y="33"/>
      <point x="540" y="-12"/>
      <point x="414" y="-12" type="curve"/>
      <point x="401" y="-28" type="line"/>
      <point x="455" y="-25"/>
      <point x="491" y="-54"/>
      <point x="491" y="-91" type="curve" smooth="yes"/>
      <point x="491" y="-145"/>
      <point x="436" y="-179"/>
      <point x="381" y="-179" type="curve" smooth="yes"/>
      <point x="340" y="-179"/>
      <point x="305" y="-166"/>
      <point x="277" y="-147" type="curve"/>
      <point x="309" y="-104" type="line"/>
      <point x="331" y="-118"/>
      <point x="352" y="-124"/>
      <point x="378" y="-124" type="curve" smooth="yes"/>
      <point x="397" y="-124"/>
      <point x="412" y="-115"/>
      <point x="412" y="-97" type="curve" smooth="yes"/>
      <point x="412" y="-81"/>
      <point x="395" y="-78"/>
      <point x="379" y="-78" type="curve" smooth="yes"/>
      <point x="368" y="-78"/>
      <point x="352" y="-79"/>
      <point x="341" y="-83" type="curve"/>
      <point x="320" y="-49" type="line"/>
      <point x="351" y="-8" type="line"/>
      <point x="163" y="17"/>
      <point x="40" y="157"/>
      <point x="40" y="369" type="curve" smooth="yes"/>
      <point x="40" y="588"/>
      <point x="205" y="742"/>
      <point x="410" y="742" type="curve" smooth="yes"/>
      <point x="517" y="742"/>
      <point x="598" y="711"/>
      <point x="673" y="634" type="curve"/>
      <point x="583" y="529" type="line"/>
      <point x="534" y="578"/>
      <point x="478" y="602"/>
      <point x="410" y="602" type="curve" smooth="yes"/>
      <point x="285" y="602"/>
      <point x="205" y="503"/>
      <point x="205" y="369" type="curve" smooth="yes"/>
      <point x="205" y="219"/>
      <point x="278" y="128"/>
      <point x="413" y="128" type="curve" smooth="yes"/>
      <point x="505" y="128"/>
      <point x="550" y="167"/>
      <point x="597" y="211" type="curve"/>
    </contour>
  </outline>
</glyph>
<glyph name="Eth" format="1">
  <advance width="746"/>
  <unicode hex="00D0"/>
  <outline>
    <contour>
      <point x="706" y="366" type="curve" smooth="yes"/>
      <point x="706" y="125"/>
      <point x="520" y="0"/>
      <point x="326" y="0" type="curve" smooth="yes"/>
      <point x="105" y="0" type="line"/>
      <point x="105" y="289" type="line"/>
      <point x="25" y="289" type="line"/>
      <point x="25" y="421" type="line"/>
      <point x="105" y="421" type="line"/>
      <point x="105" y="730" type="line"/>
      <point x="326" y="730" type="line" smooth="yes"/>
      <point x="534" y="730"/>
      <point x="706" y="602"/>
    </contour>
    <contour>
      <point x="541" y="366" type="curve" smooth="yes"/>
      <point x="541" y="494"/>
      <point x="454" y="595"/>
      <point x="326" y="595" type="curve" smooth="yes"/>
      <point x="265" y="595" type="line"/>
      <point x="265" y="421" type="line"/>
      <point x="375" y="421" type="line"/>
      <point x="375" y="289" type="line"/>
      <point x="265" y="289" type="line"/>
      <point x="265" y="135" type="line"/>
      <point x="326" y="135" type="line" smooth="yes"/>
      <point x="462" y="135"/>
      <point x="541" y="243"/>
    </contour>
  </outline>
</glyph>
<glyph name="Odieresis" format="1">
  <advance width="832"/>
  <unicode hex="00D6"/>
  <outline>
    <contour>
      <point x="792" y="368" type="curve" smooth="yes"/>
      <point x="792" y="157"/>
      <point x="641" y="-12"/>
      <point x="415" y="-12" type="curve" smooth="yes"/>
      <point x="189" y="-12"/>
      <point x="40" y="160"/>
      <point x="40" y="368" type="curve" smooth="yes"/>
      <point x="40" y="456"/>
      <point x="67" y="537"/>
      <point x="115" y="600" type="curve"/>
      <point x="40" y="600" type="line"/>
      <point x="40" y="730" type="line"/>
      <point x="166" y="730" type="line"/>
      <point x="166" y="655" type="line"/>
      <point x="231" y="709"/>
      <point x="316" y="742"/>
      <point x="417" y="742" type="curve" smooth="yes"/>
      <point x="518" y="742"/>
      <point x="603" y="711"/>
      <point x="666" y="658" type="curve"/>
      <point x="666" y="730" type="line"/>
      <point x="792" y="730" type="line"/>
      <point x="792" y="600" type="line"/>
      <point x="721" y="600" type="line"/>
      <point x="767" y="538"/>
      <point x="792" y="458"/>
    </contour>
    <contour>
      <point x="627" y="368" type="curve" smooth="yes"/>
      <point x="627" y="490"/>
      <point x="542" y="602"/>
      <point x="417" y="602" type="curve" smooth="yes"/>
      <point x="292" y="602"/>
      <point x="205" y="490"/>
      <point x="205" y="368" type="curve" smooth="yes"/>
      <point x="205" y="238"/>
      <point x="302" y="128"/>
      <point x="415" y="128" type="curve" smooth="yes"/>
      <point x="547" y="128"/>
      <point x="627" y="245"/>
    </contour>
  </outline>
</glyph>
<glyph name="multiply" format="1">
  <advance width="533"/>
  <unicode hex="00D7"/>
  <outline>
    <contour>
      <point x="172" y="330" type="line"/>
      <point x="30" y="473" type="line"/>
      <point x="124" y="567" type="line"/>
      <point x="266" y="425" type="line"/>
      <point x="408" y="567" type="line"/>
      <point x="503" y="472" type="line"/>
      <point x="361" y="330" type="line"/>
      <point x="504" y="187" type="line"/>
      <point x="410" y="92" type="line"/>
      <point x="267" y="235" type="line"/>
      <point x="123" y="92" type="line"/>
      <point x="28" y="187" type="line"/>
    </contour>
  </outline>
</glyph>
<glyph name="Oslash" format="1">
  <advance width="832"/>
  <unicode hex="00D8"/>
  <outline>
    <contour>
      <point x="798" y="678" type="line"/>
      <point x="720" y="602" type="line"/>
      <point x="766" y="539"/>
      <point x="792" y="459"/>
      <point x="792" y="368" type="curve" smooth="yes"/>
      <point x="792" y="157"/>
      <point x="641" y="-12"/>
      <point x="415" y="-12" type="curve" smooth="yes"/>
      <point x="319" y="-12"/>
      <point x="237" y="19"/>
      <point x="174" y="71" type="curve"/>
      <point x="100" y="-2" type="line"/>
      <point x="41" y="54" type="line"/>
      <point x="118" y="129" type="line"/>
      <point x="68" y="194"/>
      <point x="40" y="278"/>
      <point x="40" y="368" type="curve" smooth="yes"/>
      <point x="40" y="578"/>
      <point x="191" y="742"/>
      <point x="417" y="742" type="curve" smooth="yes"/>
      <point x="516" y="742"/>
      <point x="600" y="712"/>
      <point x="663" y="660" type="curve"/>
      <point x="737" y="732" type="line"/>
    </contour>
    <contour>
      <point x="550" y="550" type="line"/>
      <point x="515" y="582"/>
      <point x="470" y="602"/>
      <point x="417" y="602" type="curve" smooth="yes"/>
      <point x="292" y="602"/>
      <point x="205" y="490"/>
      <point x="205" y="368" type="curve" smooth="yes"/>
      <point x="205" y="323"/>
      <point x="217" y="281"/>
      <point x="236" y="244" type="curve"/>
    </contour>
    <contour>
      <point x="627" y="368" type="curve" smooth="yes"/>
      <point x="627" y="409"/>
      <point x="617" y="449"/>
      <point x="599" y="484" type="curve"/>
      <point x="286" y="180" type="line"/>
      <point x="323" y="147"/>
      <point x="367" y="128"/>
      <point x="415" y="128" type="curve" smooth="yes"/>
      <point x="547" y="128"/>
      <point x="627" y="245"/>
    </contour>
  </outline>
</glyph>
<glyph name="Udieresis" format="1">
  <advance width="772"/>
  <unicode hex="00DC"/>
  <outline>
    <contour>
      <point x="493" y="570" type="line"/>
      <point x="412" y="570" type="line"/>
      <point x="412" y="730" type="line"/>
      <point x="493" y="730" type="line"/>
    </contour>
    <contour>
      <point x="362" y="570" type="line"/>
      <point x="281" y="570" type="line"/>
      <point x="281" y="730" type="line"/>
      <point x="362" y="730" type="line"/>
    </contour>
    <component base="U"/>
  </outline>
</glyph>
<glyph name="Thorn" format="1">
  <advance width="609"/>
  <unicode hex="00DE"/>
  <outline>
    <contour>
      <point x="584" y="378" type="curve" smooth="yes"/>
      <point x="584" y="240"/>
      <point x="482" y="153"/>
      <point x="317" y="153" type="curve" smooth="yes"/>
      <point x="235" y="153" type="line"/>
      <point x="235" y="0" type="line"/>
      <point x="75" y="0" type="line"/>
      <point x="75" y="730" type="line"/>
      <point x="235" y="730" type="line"/>
      <point x="235" y="593" type="line"/>
      <point x="317" y="593" type="line" smooth="yes"/>
      <point x="480" y="593"/>
      <point x="584" y="515"/>
    </contour>
    <contour>
      <point x="424" y="375" type="curve" smooth="yes"/>
      <point x="424" y="435"/>
      <point x="388" y="458"/>
      <point x="317" y="458" type="curve" smooth="yes"/>
      <point x="235" y="458" type="line"/>
      <point x="235" y="288" type="line"/>
      <point x="317" y="288" type="line" smooth="yes"/>
      <point x="389" y="288"/>
      <point x="424" y="316"/>
    </contour>
  </outline>
</glyph>
<glyph name="germandbls" format="1">
  <advance width="553"/>
  <unicode hex="00DF"/>
  <outline>
    <contour>
      <point x="528" y="204" type="curve" smooth="yes"/>
      <point x="528" y="76"/>
      <point x="443" y="-12"/>
      <point x="316" y="-12" type="curve" smooth="yes"/>
      <point x="296" y="-12"/>
      <point x="273" y="-7"/>
      <point x="257" y="-2" type="curve"/>
      <point x="257" y="119" type="line"/>
      <point x="270" y="113"/>
      <point x="286" y="111"/>
      <point x="306" y="111" type="curve" smooth="yes"/>
      <point x="359" y="111"/>
      <point x="377" y="145"/>
      <point x="377" y="204" type="curve" smooth="yes"/>
      <point x="377" y="269"/>
      <point x="342" y="345"/>
      <point x="247" y="366" type="curve"/>
      <point x="247" y="456" type="line"/>
      <point x="307" y="456"/>
      <point x="340" y="495"/>
      <point x="340" y="545" type="curve" smooth="yes"/>
      <point x="340" y="593"/>
      <point x="317" y="619"/>
      <point x="274" y="619" type="curve" smooth="yes"/>
      <point x="221" y="619"/>
      <point x="205" y="583"/>
      <point x="205" y="552" type="curve" smooth="yes"/>
      <point x="205" y="0" type="line"/>
      <point x="50" y="0" type="line"/>
      <point x="50" y="553" type="line" smooth="yes"/>
      <point x="50" y="665"/>
      <point x="152" y="742"/>
      <point x="278" y="742" type="curve" smooth="yes"/>
      <point x="404" y="742"/>
      <point x="491" y="669"/>
      <point x="491" y="560" type="curve" smooth="yes"/>
      <point x="491" y="488"/>
      <point x="450" y="434"/>
      <point x="394" y="412" type="curve"/>
      <point x="459" y="387"/>
      <point x="528" y="331"/>
    </contour>
  </outline>
</glyph>
<glyph name="ae" format="1">
  <advance width="802"/>
  <unicode hex="00E6"/>
  <outline>
    <contour>
      <point x="775" y="60" type="line"/>
      <point x="710" y="6"/>
      <point x="643" y="-12"/>
      <point x="565" y="-12" type="curve" smooth="yes"/>
      <point x="489" y="-12"/>
      <point x="415" y="13"/>
      <point x="370" y="69" type="curve"/>
      <point x="310" y="10"/>
      <point x="267" y="-12"/>
      <point x="178" y="-12" type="curve" smooth="yes"/>
      <point x="95" y="-12"/>
      <point x="22" y="40"/>
      <point x="22" y="122" type="curve" smooth="yes"/>
      <point x="22" y="256"/>
      <point x="191" y="282"/>
      <point x="331" y="288" type="curve"/>
      <point x="331" y="303" type="line" smooth="yes"/>
      <point x="331" y="333"/>
      <point x="307" y="343"/>
      <point x="263" y="343" type="curve" smooth="yes"/>
      <point x="203" y="343"/>
      <point x="154" y="329"/>
      <point x="109" y="306" type="curve"/>
      <point x="61" y="399" type="line"/>
      <point x="118" y="431"/>
      <point x="190" y="443"/>
      <point x="268" y="443" type="curve" smooth="yes"/>
      <point x="333" y="443"/>
      <point x="388" y="430"/>
      <point x="419" y="401" type="curve"/>
      <point x="450" y="426"/>
      <point x="495" y="443"/>
      <point x="540" y="443" type="curve" smooth="yes"/>
      <point x="677" y="443"/>
      <point x="770" y="346"/>
      <point x="770" y="189" type="curve"/>
      <point x="464" y="189" type="line"/>
      <point x="468" y="140"/>
      <point x="504" y="98"/>
      <point x="565" y="98" type="curve" smooth="yes"/>
      <point x="632" y="98"/>
      <point x="672" y="113"/>
      <point x="709" y="144" type="curve"/>
    </contour>
    <contour>
      <point x="611" y="271" type="line"/>
      <point x="607" y="315"/>
      <point x="579" y="343"/>
      <point x="538" y="343" type="curve" smooth="yes"/>
      <point x="494" y="343"/>
      <point x="471" y="313"/>
      <point x="465" y="271" type="curve"/>
    </contour>
    <contour>
      <point x="331" y="129" type="curve"/>
      <point x="331" y="201" type="line"/>
      <point x="265" y="201"/>
      <point x="187" y="186"/>
      <point x="187" y="138" type="curve" smooth="yes"/>
      <point x="187" y="113"/>
      <point x="212" y="98"/>
      <point x="237" y="98" type="curve" smooth="yes"/>
      <point x="276" y="98"/>
      <point x="306" y="107"/>
    </contour>
  </outline>
</glyph>
<glyph name="ccedilla" format="1">
  <advance width="462"/>
  <unicode hex="00E7"/>
  <outline>
    <contour>
      <point x="451" y="81" type="line"/>
      <point x="401" y="19"/>
      <point x="351" y="-9"/>
      <point x="273" y="-12" type="curve"/>
      <point x="260" y="-28" type="line"/>
      <point x="314" y="-25"/>
      <point x="350" y="-54"/>
      <point x="350" y="-91" type="curve" smooth="yes"/>
      <point x="350" y="-145"/>
      <point x="295" y="-179"/>
      <point x="240" y="-179" type="curve" smooth="yes"/>
      <point x="199" y="-179"/>
      <point x="164" y="-166"/>
      <point x="136" y="-147" type="curve"/>
      <point x="168" y="-104" type="line"/>
      <point x="190" y="-118"/>
      <point x="211" y="-124"/>
      <point x="237" y="-124" type="curve" smooth="yes"/>
      <point x="256" y="-124"/>
      <point x="271" y="-115"/>
      <point x="271" y="-97" type="curve" smooth="yes"/>
      <point x="271" y="-81"/>
      <point x="254" y="-78"/>
      <point x="238" y="-78" type="curve" smooth="yes"/>
      <point x="227" y="-78"/>
      <point x="211" y="-79"/>
      <point x="200" y="-83" type="curve"/>
      <point x="179" y="-49" type="line"/>
      <point x="211" y="-7" type="line"/>
      <point x="102" y="14"/>
      <point x="25" y="103"/>
      <point x="25" y="214" type="curve" smooth="yes"/>
      <point x="25" y="339"/>
      <point x="124" y="443"/>
      <point x="262" y="443" type="curve" smooth="yes"/>
      <point x="335" y="443"/>
      <point x="391" y="418"/>
      <point x="437" y="363" type="curve"/>
      <point x="348" y="280" type="line"/>
      <point x="323" y="307"/>
      <point x="294" y="320"/>
      <point x="262" y="320" type="curve" smooth="yes"/>
      <point x="207" y="320"/>
      <point x="169" y="275"/>
      <point x="169" y="214" type="curve" smooth="yes"/>
      <point x="169" y="162"/>
      <point x="206" y="110"/>
      <point x="262" y="110" type="curve" smooth="yes"/>
      <point x="302" y="110"/>
      <point x="323" y="126"/>
      <point x="347" y="154" type="curve"/>
    </contour>
  </outline>
</glyph>
<glyph name="idieresis" format="1">
  <advance width="255"/>
  <unicode hex="00EF"/>
  <outline>
    <contour>
      <point x="290" y="495" type="line"/>
      <point x="164" y="495" type="line"/>
      <point x="164" y="625" type="line"/>
      <point x="290" y="625" type="line"/>
    </contour>
    <contour>
      <point x="89" y="495" type="line"/>
      <point x="-37" y="495" type="line"/>
      <point x="-37" y="625" type="line"/>
      <point x="89" y="625" type="line"/>
    </contour>
    <component base="dotlessi"/>
  </outline>
</glyph>
<glyph name="eth" format="1">
  <advance width="516"/>
  <unicode hex="00F0"/>
  <outline>
    <contour>
      <point x="491" y="247" type="curve" smooth="yes"/>
      <point x="491" y="83"/>
      <point x="381" y="-12"/>
      <point x="258" y="-12" type="curve" smooth="yes"/>
      <point x="131" y="-12"/>
      <point x="25" y="85"/>
      <point x="25" y="216" type="curve" smooth="yes"/>
      <point x="25" y="344"/>
      <point x="103" y="443"/>
      <point x="227" y="443" type="curve" smooth="yes"/>
      <point x="268" y="443"/>
      <point x="306" y="427"/>
      <point x="328" y="402" type="curve"/>
      <point x="320" y="444"/>
      <point x="297" y="490"/>
      <point x="264" y="534" type="curve"/>
      <point x="143" y="485" type="line"/>
      <point x="100" y="573" type="line"/>
      <point x="196" y="611" type="line"/>
      <point x="173" y="633"/>
      <point x="149" y="653"/>
      <point x="125" y="670" type="curve"/>
      <point x="215" y="749" type="line"/>
      <point x="251" y="725"/>
      <point x="287" y="696"/>
      <point x="321" y="662" type="curve"/>
      <point x="404" y="695" type="line"/>
      <point x="446" y="607" type="line"/>
      <point x="388" y="584" type="line"/>
      <point x="448" y="497"/>
      <point x="491" y="387"/>
    </contour>
    <contour>
      <point x="339" y="217" type="curve" smooth="yes"/>
      <point x="339" y="265"/>
      <point x="313" y="320"/>
      <point x="257" y="320" type="curve" smooth="yes"/>
      <point x="204" y="320"/>
      <point x="176" y="265"/>
      <point x="176" y="216" type="curve" smooth="yes"/>
      <point x="176" y="166"/>
      <point x="204" y="111"/>
      <point x="258" y="111" type="curve" smooth="yes"/>
      <point x="312" y="111"/>
      <point x="339" y="167"/>
    </contour>
  </outline>
</glyph>
<glyph name="oslash" format="1">
  <advance width="515"/>
  <unicode hex="00F8"/>
  <outline>
    <contour>
      <point x="502" y="400" type="line"/>
      <point x="448" y="348" type="line"/>
      <point x="474" y="312"/>
      <point x="490" y="267"/>
      <point x="490" y="217" type="curve" smooth="yes"/>
      <point x="490" y="89"/>
      <point x="382" y="-12"/>
      <point x="258" y="-12" type="curve" smooth="yes"/>
      <point x="208" y="-12"/>
      <point x="161" y="3"/>
      <point x="123" y="30" type="curve"/>
      <point x="76" y="-16" type="line"/>
      <point x="22" y="35" type="line"/>
      <point x="69" y="81" type="line"/>
      <point x="41" y="118"/>
      <point x="25" y="165"/>
      <point x="25" y="216" type="curve" smooth="yes"/>
      <point x="25" y="344"/>
      <point x="133" y="443"/>
      <point x="257" y="443" type="curve" smooth="yes"/>
      <point x="308" y="443"/>
      <point x="357" y="427"/>
      <point x="396" y="400" type="curve"/>
      <point x="446" y="449" type="line"/>
    </contour>
    <contour>
      <point x="339" y="217" type="curve" smooth="yes"/>
      <point x="339" y="265"/>
      <point x="313" y="320"/>
      <point x="257" y="320" type="curve" smooth="yes"/>
      <point x="204" y="320"/>
      <point x="176" y="265"/>
      <point x="176" y="216" type="curve" smooth="yes"/>
      <point x="176" y="166"/>
      <point x="204" y="111"/>
      <point x="258" y="111" type="curve" smooth="yes"/>
      <point x="312" y="111"/>
      <point x="339" y="167"/>
    </contour>
  </outline>
</glyph>
<glyph name="thorn" format="1">
  <advance width="562"/>
  <unicode hex="00FE"/>
  <outline>
    <contour>
      <point x="537" y="216" type="curve" smooth="yes"/>
      <point x="537" y="98"/>
      <point x="456" y="-12"/>
      <point x="335" y="-12" type="curve" smooth="yes"/>
      <point x="283" y="-12"/>
      <point x="229" y="10"/>
      <point x="205" y="44" type="curve"/>
      <point x="205" y="-179" type="line"/>
      <point x="50" y="-179" type="line"/>
      <point x="50" y="730" type="line"/>
      <point x="205" y="730" type="line"/>
      <point x="205" y="387" type="line"/>
      <point x="229" y="421"/>
      <point x="283" y="443"/>
      <point x="335" y="443" type="curve" smooth="yes"/>
      <point x="456" y="443"/>
      <point x="537" y="337"/>
    </contour>
    <contour>
      <point x="382" y="214" type="curve" smooth="yes"/>
      <point x="382" y="273"/>
      <point x="345" y="313"/>
      <point x="294" y="313" type="curve" smooth="yes"/>
      <point x="240" y="313"/>
      <point x="205" y="273"/>
      <point x="205" y="214" type="curve" smooth="yes"/>
      <point x="205" y="156"/>
      <point x="241" y="118"/>
      <point x="294" y="118" type="curve" smooth="yes"/>
      <point x="345" y="118"/>
      <point x="382" y="155"/>
    </contour>
  </outline>
</glyph>
<glyph name="dotlessi" format="1">
  <advance width="255"/>
  <unicode hex="0131"/>
  <outline>
    <contour>
      <point x="205" y="0" type="line"/>
      <point x="50" y="0" type="line"/>
      <point x="50" y="431" type="line"/>
      <point x="205" y="431" type="line"/>
    </contour>
  </outline>
</glyph>
<glyph name="Lslash" format="1">
  <advance width="550"/>
  <unicode hex="0141"/>
  <outline>
    <contour>
      <point x="515" y="0" type="line"/>
      <point x="95" y="0" type="line"/>
      <point x="95" y="278" type="line"/>
      <point x="51" y="260" type="line"/>
      <point x="-1" y="372" type="line"/>
      <point x="95" y="411" type="line"/>
      <point x="95" y="730" type="line"/>
      <point x="255" y="730" type="line"/>
      <point x="255" y="477" type="line"/>
      <point x="356" y="518" type="line"/>
      <point x="407" y="406" type="line"/>
      <point x="255" y="344" type="line"/>
      <point x="255" y="135" type="line"/>
      <point x="515" y="135" type="line"/>
    </contour>
  </outline>
</glyph>
<glyph name="lslash" format="1">
  <advance width="325"/>
  <unicode hex="0142"/>
  <outline>
    <contour>
      <point x="326" y="373" type="line"/>
      <point x="240" y="338" type="line"/>
      <point x="240" y="0" type="line"/>
      <point x="85" y="0" type="line"/>
      <point x="85" y="274" type="line"/>
      <point x="51" y="260" type="line"/>
      <point x="-1" y="372" type="line"/>
      <point x="85" y="407" type="line"/>
      <point x="85" y="730" type="line"/>
      <point x="240" y="730" type="line"/>
      <point x="240" y="471" type="line"/>
      <point x="275" y="485" type="line"/>
    </contour>
  </outline>
</glyph>
<glyph name="OE" format="1">
  <advance width="1114"/>
  <unicode hex="0152"/>
  <outline>
    <contour>
      <point x="1057" y="0" type="line"/>
      <point x="632" y="0" type="line"/>
      <point x="632" y="78" type="line"/>
      <point x="593" y="28"/>
      <point x="497" y="-12"/>
      <point x="415" y="-12" type="curve" smooth="yes"/>
      <point x="189" y="-12"/>
      <point x="40" y="160"/>
      <point x="40" y="368" type="curve" smooth="yes"/>
      <point x="40" y="578"/>
      <point x="191" y="742"/>
      <point x="417" y="742" type="curve" smooth="yes"/>
      <point x="499" y="742"/>
      <point x="583" y="708"/>
      <point x="632" y="656" type="curve"/>
      <point x="632" y="730" type="line"/>
      <point x="1042" y="730" type="line"/>
      <point x="1042" y="595" type="line"/>
      <point x="772" y="595" type="line"/>
      <point x="772" y="424" type="line"/>
      <point x="1023" y="424" type="line"/>
      <point x="1023" y="289" type="line"/>
      <point x="772" y="289" type="line"/>
      <point x="772" y="135" type="line"/>
      <point x="1057" y="135" type="line"/>
    </contour>
    <contour>
      <point x="627" y="368" type="curve" smooth="yes"/>
      <point x="627" y="496"/>
      <point x="544" y="602"/>
      <point x="417" y="602" type="curve" smooth="yes"/>
      <point x="292" y="602"/>
      <point x="205" y="490"/>
      <point x="205" y="368" type="curve" smooth="yes"/>
      <point x="205" y="234"/>
      <point x="301" y="128"/>
      <point x="415" y="128" type="curve" smooth="yes"/>
      <point x="547" y="128"/>
      <point x="627" y="245"/>
    </contour>
  </outline>
</glyph>
<glyph name="oe" format="1">
  <advance width="817"/>
  <unicode hex="0153"/>
  <outline>
    <contour>
      <point x="790" y="60" type="line"/>
      <point x="725" y="6"/>
      <point x="658" y="-12"/>
      <point x="580" y="-12" type="curve" smooth="yes"/>
      <point x="516" y="-12"/>
      <point x="440" y="19"/>
      <point x="409" y="64" type="curve"/>
      <point x="383" y="23"/>
      <point x="315" y="-12"/>
      <point x="258" y="-12" type="curve" smooth="yes"/>
      <point x="131" y="-12"/>
      <point x="25" y="85"/>
      <point x="25" y="216" type="curve" smooth="yes"/>
      <point x="25" y="344"/>
      <point x="133" y="443"/>
      <point x="257" y="443" type="curve" smooth="yes"/>
      <point x="320" y="443"/>
      <point x="381" y="413"/>
      <point x="407" y="371" type="curve"/>
      <point x="431" y="411"/>
      <point x="497" y="443"/>
      <point x="555" y="443" type="curve" smooth="yes"/>
      <point x="692" y="443"/>
      <point x="785" y="346"/>
      <point x="785" y="189" type="curve"/>
      <point x="483" y="189" type="line"/>
      <point x="488" y="139"/>
      <point x="519" y="98"/>
      <point x="580" y="98" type="curve" smooth="yes"/>
      <point x="647" y="98"/>
      <point x="687" y="113"/>
      <point x="724" y="144" type="curve"/>
    </contour>
    <contour>
      <point x="636" y="271" type="line"/>
      <point x="632" y="315"/>
      <point x="604" y="343"/>
      <point x="563" y="343" type="curve" smooth="yes"/>
      <point x="519" y="343"/>
      <point x="502" y="312"/>
      <point x="494" y="271" type="curve"/>
    </contour>
    <contour>
      <point x="339" y="217" type="curve" smooth="yes"/>
      <point x="339" y="265"/>
      <point x="313" y="320"/>
      <point x="257" y="320" type="curve" smooth="yes"/>
      <point x="204" y="320"/>
      <point x="176" y="265"/>
      <point x="176" y="216" type="curve" smooth="yes"/>
      <point x="176" y="166"/>
      <point x="204" y="111"/>
      <point x="258" y="111" type="curve" smooth="yes"/>
      <point x="312" y="111"/>
      <point x="339" y="167"/>
    </contour>
  </outline>
</glyph>
<glyph name="florin" format="1">
  <advance width="366"/>
  <unicode hex="0192"/>
  <outline>
    <contour>
      <point x="338" y="742" type="line"/>
      <point x="327" y="612" type="line"/>
      <point x="302" y="612" type="line" smooth="yes"/>
      <point x="281" y="612"/>
      <point x="272" y="582"/>
      <point x="270" y="563" type="curve" smooth="yes"/>
      <point x="259" y="431" type="line"/>
      <point x="316" y="431" type="line"/>
      <point x="306" y="316" type="line"/>
      <point x="249" y="316" type="line"/>
      <point x="217" y="-46" type="line" smooth="yes"/>
      <point x="210" y="-126"/>
      <point x="163" y="-179"/>
      <point x="80" y="-179" type="curve" smooth="yes"/>
      <point x="-1" y="-179" type="line"/>
      <point x="10" y="-49" type="line"/>
      <point x="35" y="-49" type="line" smooth="yes"/>
      <point x="56" y="-49"/>
      <point x="64" y="-19"/>
      <point x="66" y="0" type="curve" smooth="yes"/>
      <point x="94" y="316" type="line"/>
      <point x="40" y="316" type="line"/>
      <point x="50" y="431" type="line"/>
      <point x="104" y="431" type="line"/>
      <point x="119" y="609" type="line" smooth="yes"/>
      <point x="126" y="689"/>
      <point x="174" y="742"/>
      <point x="257" y="742" type="curve" smooth="yes"/>
    </contour>
  </outline>
</glyph>
<glyph name="circumflex" format="1">
  <advance width="500"/>
  <unicode hex="02C6"/>
  <outline>
    <contour>
      <point x="407" y="495" type="line"/>
      <point x="294" y="495" type="line"/>
      <point x="249" y="565" type="line"/>
      <point x="204" y="495" type="line"/>
      <point x="93" y="495" type="line"/>
      <point x="196" y="642" type="line"/>
      <point x="304" y="642" type="line"/>
    </contour>
  </outline>
</glyph>
<glyph name="caron" format="1">
  <advance width="500"/>
  <unicode hex="02C7"/>
  <outline>
    <contour>
      <point x="405" y="642" type="line"/>
      <point x="302" y="495" type="line"/>
      <point x="194" y="495" type="line"/>
      <point x="91" y="642" type="line"/>
      <point x="204" y="642" type="line"/>
      <point x="249" y="572" type="line"/>
      <point x="294" y="642" type="line"/>
    </contour>
  </outline>
</glyph>
<glyph name="breve" format="1">
  <advance width="500"/>
  <unicode hex="02D8"/>
  <outline>
    <contour>
      <point x="398" y="637" type="line"/>
      <point x="390" y="541"/>
      <point x="331" y="490"/>
      <point x="250" y="490" type="curve" smooth="yes"/>
      <point x="169" y="490"/>
      <point x="110" y="541"/>
      <point x="102" y="637" type="curve"/>
      <point x="177" y="637" type="line"/>
      <point x="184" y="606"/>
      <point x="204" y="564"/>
      <point x="250" y="564" type="curve" smooth="yes"/>
      <point x="296" y="564"/>
      <point x="317" y="608"/>
      <point x="323" y="637" type="curve"/>
    </contour>
  </outline>
</glyph>
<glyph name="dotaccent" format="1">
  <advance width="500"/>
  <unicode hex="02D9"/>
  <outline>
    <contour>
      <point x="312" y="495" type="line"/>
      <point x="186" y="495" type="line"/>
      <point x="186" y="625" type="line"/>
      <point x="312" y="625" type="line"/>
    </contour>
  </outline>
</glyph>
<glyph name="ring" format="1">
  <advance width="500"/>
  <unicode hex="02DA"/>
  <outline>
    <contour>
      <point x="379" y="617" type="curve" smooth="yes"/>
      <point x="379" y="548"/>
      <point x="319" y="488"/>
      <point x="250" y="488" type="curve" smooth="yes"/>
      <point x="181" y="488"/>
      <point x="121" y="548"/>
      <point x="121" y="617" type="curve" smooth="yes"/>
      <point x="121" y="686"/>
      <point x="181" y="746"/>
      <point x="250" y="746" type="curve" smooth="yes"/>
      <point x="319" y="746"/>
      <point x="379" y="686"/>
    </contour>
    <contour>
      <point x="303" y="617" type="curve" smooth="yes"/>
      <point x="303" y="647"/>
      <point x="280" y="670"/>
      <point x="250" y="670" type="curve" smooth="yes"/>
      <point x="220" y="670"/>
      <point x="197" y="647"/>
      <point x="197" y="617" type="curve" smooth="yes"/>
      <point x="197" y="587"/>
      <point x="220" y="564"/>
      <point x="250" y="564" type="curve" smooth="yes"/>
      <point x="280" y="564"/>
      <point x="303" y="587"/>
    </contour>
  </outline>
</glyph>
<glyph name="ogonek" format="1">
  <advance width="500"/>
  <unicode hex="02DB"/>
  <outline>
    <contour>
      <point x="339" y="-149" type="line"/>
      <point x="312" y="-171"/>
      <point x="281" y="-181"/>
      <point x="240" y="-181" type="curve" smooth="yes"/>
      <point x="185" y="-181"/>
      <point x="125" y="-152"/>
      <point x="125" y="-98" type="curve" smooth="yes"/>
      <point x="125" y="-61"/>
      <point x="156" y="-23"/>
      <point x="226" y="12" type="curve"/>
      <point x="292" y="12" type="line"/>
      <point x="226" y="-34"/>
      <point x="207" y="-66"/>
      <point x="207" y="-94" type="curve" smooth="yes"/>
      <point x="207" y="-123"/>
      <point x="226" y="-133"/>
      <point x="245" y="-133" type="curve" smooth="yes"/>
      <point x="271" y="-133"/>
      <point x="288" y="-128"/>
      <point x="312" y="-112" type="curve"/>
    </contour>
  </outline>
</glyph>
<glyph name="tilde" format="1">
  <advance width="500"/>
  <unicode hex="02DC"/>
  <outline>
    <contour>
      <point x="440" y="617" type="line"/>
      <point x="440" y="540"/>
      <point x="392" y="493"/>
      <point x="312" y="493" type="curve" smooth="yes"/>
      <point x="289" y="493"/>
      <point x="265" y="503"/>
      <point x="243" y="512" type="curve" smooth="yes"/>
      <point x="221" y="522"/>
      <point x="200" y="531"/>
      <point x="184" y="531" type="curve" smooth="yes"/>
      <point x="161" y="531"/>
      <point x="143" y="522"/>
      <point x="143" y="495" type="curve"/>
      <point x="60" y="495" type="line"/>
      <point x="60" y="571"/>
      <point x="108" y="619"/>
      <point x="188" y="619" type="curve" smooth="yes"/>
      <point x="210" y="619"/>
      <point x="234" y="609"/>
      <point x="257" y="599" type="curve" smooth="yes"/>
      <point x="279" y="590"/>
      <point x="299" y="581"/>
      <point x="316" y="581" type="curve" smooth="yes"/>
      <point x="339" y="581"/>
      <point x="357" y="590"/>
      <point x="357" y="617" type="curve"/>
    </contour>
  </outline>
</glyph>
<glyph name="hungarumlaut" format="1">
  <advance width="500"/>
  <unicode hex="02DD"/>
  <outline>
    <contour>
      <point x="442" y="662" type="line"/>
      <point x="349" y="495" type="line"/>
      <point x="226" y="495" type="line"/>
      <point x="319" y="662" type="line"/>
    </contour>
    <contour>
      <point x="274" y="662" type="line"/>
      <point x="181" y="495" type="line"/>
      <point x="58" y="495" type="line"/>
      <point x="151" y="662" type="line"/>
    </contour>
  </outline>
</glyph>
<glyph name="endash" format="1">
  <advance width="460"/>
  <unicode hex="2013"/>
  <outline>
    <contour>
      <point x="420" y="204" type="line"/>
      <point x="40" y="204" type="line"/>
      <point x="40" y="336" type="line"/>
      <point x="420" y="336" type="line"/>
    </contour>
  </outline>
</glyph>
<glyph name="emdash" format="1">
  <advance width="650"/>
  <unicode hex="2014"/>
  <outline>
    <contour>
      <point x="610" y="204" type="line"/>
      <point x="40" y="204" type="line"/>
      <point x="40" y="336" type="line"/>
      <point x="610" y="336" type="line"/>
    </contour>
  </outline>
</glyph>
<glyph name="quoteleft" format="1">
  <advance width="250"/>
  <unicode hex="2018"/>
  <unicode hex="02BB"/>
  <outline>
    <contour>
      <point x="225" y="686" type="line"/>
      <point x="205" y="656"/>
      <point x="194" y="612"/>
      <point x="194" y="570" type="curve" smooth="yes"/>
      <point x="194" y="455" type="line"/>
      <point x="50" y="455" type="line"/>
      <point x="50" y="545" type="line" smooth="yes"/>
      <point x="50" y="619"/>
      <point x="86" y="682"/>
      <point x="130" y="742" type="curve"/>
    </contour>
  </outline>
</glyph>
<glyph name="quoteright" format="1">
  <advance width="250"/>
  <unicode hex="2019"/>
  <unicode hex="02BC"/>
  <outline>
    <contour>
      <point x="194" y="640" type="line" smooth="yes"/>
      <point x="194" y="566"/>
      <point x="158" y="503"/>
      <point x="114" y="443" type="curve"/>
      <point x="19" y="499" type="line"/>
      <point x="39" y="529"/>
      <point x="50" y="573"/>
      <point x="50" y="615" type="curve" smooth="yes"/>
      <point x="50" y="730" type="line"/>
      <point x="194" y="730" type="line"/>
    </contour>
  </outline>
</glyph>
<glyph name="quotesinglbase" format="1">
  <advance width="250"/>
  <unicode hex="201A"/>
  <outline>
    <contour>
      <point x="194" y="25" type="line" smooth="yes"/>
      <point x="194" y="-49"/>
      <point x="158" y="-112"/>
      <point x="114" y="-172" type="curve"/>
      <point x="19" y="-116" type="line"/>
      <point x="39" y="-86"/>
      <point x="50" y="-42"/>
      <point x="50" y="0" type="curve" smooth="yes"/>
      <point x="50" y="115" type="line"/>
      <point x="194" y="115" type="line"/>
    </contour>
  </outline>
</glyph>
<glyph name="quotedblleft" format="1">
  <advance width="450"/>
  <unicode hex="201C"/>
  <outline>
    <contour>
      <point x="431" y="686" type="line"/>
      <point x="411" y="656"/>
      <point x="400" y="612"/>
      <point x="400" y="570" type="curve" smooth="yes"/>
      <point x="400" y="455" type="line"/>
      <point x="256" y="455" type="line"/>
      <point x="256" y="545" type="line" smooth="yes"/>
      <point x="256" y="619"/>
      <point x="292" y="682"/>
      <point x="336" y="742" type="curve"/>
    </contour>
    <contour>
      <point x="225" y="686" type="line"/>
      <point x="205" y="656"/>
      <point x="194" y="612"/>
      <point x="194" y="570" type="curve" smooth="yes"/>
      <point x="194" y="455" type="line"/>
      <point x="50" y="455" type="line"/>
      <point x="50" y="545" type="line" smooth="yes"/>
      <point x="50" y="619"/>
      <point x="86" y="682"/>
      <point x="130" y="742" type="curve"/>
    </contour>
  </outline>
</glyph>
<glyph name="quotedblright" format="1">
  <advance width="450"/>
  <unicode hex="201D"/>
  <outline>
    <contour>
      <point x="400" y="640" type="line" smooth="yes"/>
      <point x="400" y="566"/>
      <point x="364" y="503"/>
      <point x="320" y="443" type="curve"/>
      <point x="225" y="499" type="line"/>
      <point x="245" y="529"/>
      <point x="256" y="573"/>
      <point x="256" y="615" type="curve" smooth="yes"/>
      <point x="256" y="730" type="line"/>
      <point x="400" y="730" type="line"/>
    </contour>
    <contour>
      <point x="194" y="640" type="line" smooth="yes"/>
      <point x="194" y="566"/>
      <point x="158" y="503"/>
      <point x="114" y="443" type="curve"/>
      <point x="19" y="499" type="line"/>
      <point x="39" y="529"/>
      <point x="50" y="573"/>
      <point x="50" y="615" type="curve" smooth="yes"/>
      <point x="50" y="730" type="line"/>
      <point x="194" y="730" type="line"/>
    </contour>
  </outline>
</glyph>
<glyph name="quotedblbase" format="1">
  <advance width="450"/>
  <unicode hex="201E"/>
  <outline>
    <contour>
      <point x="400" y="25" type="line" smooth="yes"/>
      <point x="400" y="-49"/>
      <point x="364" y="-112"/>
      <point x="320" y="-172" type="curve"/>
      <point x="225" y="-116" type="line"/>
      <point x="245" y="-86"/>
      <point x="256" y="-42"/>
      <point x="256" y="0" type="curve" smooth="yes"/>
      <point x="256" y="115" type="line"/>
      <point x="400" y="115" type="line"/>
    </contour>
    <contour>
      <point x="194" y="25" type="line" smooth="yes"/>
      <point x="194" y="-49"/>
      <point x="158" y="-112"/>
      <point x="114" y="-172" type="curve"/>
      <point x="19" y="-116" type="line"/>
      <point x="39" y="-86"/>
      <point x="50" y="-42"/>
      <point x="50" y="0" type="curve" smooth="yes"/>
      <point x="50" y="115" type="line"/>
      <point x="194" y="115" type="line"/>
    </contour>
  </outline>
</glyph>
<glyph name="daggerdbl" format="1">
  <advance width="575"/>
  <unicode hex="2021"/>
  <outline>
    <contour>
      <point x="545" y="72" type="line"/>
      <point x="357" y="72" type="line"/>
      <point x="357" y="-179" type="line"/>
      <point x="218" y="-179" type="line"/>
      <point x="218" y="72" type="line"/>
      <point x="30" y="72" type="line"/>
      <point x="30" y="204" type="line"/>
      <point x="218" y="204" type="line"/>
      <point x="218" y="338" type="line"/>
      <point x="30" y="338" type="line"/>
      <point x="30" y="470" type="line"/>
      <point x="218" y="470" type="line"/>
      <point x="218" y="730" type="line"/>
      <point x="357" y="730" type="line"/>
      <point x="357" y="470" type="line"/>
      <point x="545" y="470" type="line"/>
      <point x="545" y="338" type="line"/>
      <point x="357" y="338" type="line"/>
      <point x="357" y="204" type="line"/>
      <point x="545" y="204" type="line"/>
    </contour>
  </outline>
</glyph>
<glyph name="ellipsis" format="1">
  <advance width="730"/>
  <unicode hex="2026"/>
  <outline>
    <contour>
      <point x="680" y="0" type="line"/>
      <point x="530" y="0" type="line"/>
      <point x="530" y="151" type="line"/>
      <point x="680" y="151" type="line"/>
    </contour>
    <contour>
      <point x="440" y="0" type="line"/>
      <point x="290" y="0" type="line"/>
      <point x="290" y="151" type="line"/>
      <point x="440" y="151" type="line"/>
    </contour>
    <contour>
      <point x="200" y="0" type="line"/>
      <point x="50" y="0" type="line"/>
      <point x="50" y="151" type="line"/>
      <point x="200" y="151" type="line"/>
    </contour>
  </outline>
</glyph>
<glyph name="guilsinglleft" format="1">
  <advance width="242"/>
  <unicode hex="2039"/>
  <outline>
    <contour>
      <point x="192" y="41" type="line"/>
      <point x="40" y="152" type="line"/>
      <point x="40" y="288" type="line"/>
      <point x="192" y="399" type="line"/>
      <point x="192" y="268" type="line"/>
      <point x="127" y="220" type="line"/>
      <point x="192" y="172" type="line"/>
    </contour>
  </outline>
</glyph>
<glyph name="guilsinglright" format="1">
  <advance width="242"/>
  <unicode hex="203A"/>
  <outline>
    <contour>
      <point x="202" y="152" type="line"/>
      <point x="50" y="41" type="line"/>
      <point x="50" y="172" type="line"/>
      <point x="115" y="220" type="line"/>
      <point x="50" y="268" type="line"/>
      <point x="50" y="399" type="line"/>
      <point x="202" y="288" type="line"/>
    </contour>
  </outline>
</glyph>
<glyph name="fraction" format="1">
  <advance width="452"/>
  <unicode hex="2044"/>
  <outline>
    <contour>
      <point x="515" y="730" type="line"/>
      <point x="92" y="0" type="line"/>
      <point x="-63" y="0" type="line"/>
      <point x="360" y="730" type="line"/>
    </contour>
  </outline>
</glyph>
<glyph name="Euro" format="1">
  <advance width="653"/>
  <unicode hex="20AC"/>
  <outline>
    <contour>
      <point x="104" y="342" type="line"/>
      <point x="103" y="359"/>
      <point x="103" y="374"/>
      <point x="104" y="391" type="curve"/>
      <point x="17" y="391" type="line"/>
      <point x="17" y="436" type="line"/>
      <point x="107" y="436" type="line"/>
      <point x="126" y="615"/>
      <point x="222" y="742"/>
      <point x="388" y="742" type="curve" smooth="yes"/>
      <point x="501" y="742"/>
      <point x="583" y="686"/>
      <point x="629" y="591" type="curve"/>
      <point x="507" y="522" type="line"/>
      <point x="482" y="565"/>
      <point x="451" y="609"/>
      <point x="391" y="609" type="curve" smooth="yes"/>
      <point x="304" y="609"/>
      <point x="275" y="529"/>
      <point x="267" y="436" type="curve"/>
      <point x="448" y="436" type="line"/>
      <point x="448" y="391" type="line"/>
      <point x="264" y="391" type="line"/>
      <point x="263" y="374"/>
      <point x="263" y="359"/>
      <point x="264" y="342" type="curve"/>
      <point x="448" y="342" type="line"/>
      <point x="448" y="297" type="line"/>
      <point x="267" y="297" type="line"/>
      <point x="277" y="206"/>
      <point x="308" y="121"/>
      <point x="388" y="121" type="curve" smooth="yes"/>
      <point x="451" y="121"/>
      <point x="486" y="160"/>
      <point x="517" y="213" type="curve"/>
      <point x="633" y="143" type="line"/>
      <point x="577" y="35"/>
      <point x="499" y="-12"/>
      <point x="388" y="-12" type="curve" smooth="yes"/>
      <point x="217" y="-12"/>
      <point x="126" y="114"/>
      <point x="107" y="297" type="curve"/>
      <point x="17" y="297" type="line"/>
      <point x="17" y="342" type="line"/>
    </contour>
  </outline>
</glyph>
<glyph name="uni2117" format="1">
  <advance width="844"/>
  <unicode hex="2117"/>
  <outline>
    <contour>
      <point x="799" y="365" type="curve" smooth="yes"/>
      <point x="799" y="157"/>
      <point x="630" y="-12"/>
      <point x="422" y="-12" type="curve" smooth="yes"/>
      <point x="214" y="-12"/>
      <point x="45" y="157"/>
      <point x="45" y="365" type="curve" smooth="yes"/>
      <point x="45" y="573"/>
      <point x="214" y="742"/>
      <point x="422" y="742" type="curve" smooth="yes"/>
      <point x="630" y="742"/>
      <point x="799" y="573"/>
    </contour>
    <contour>
      <point x="738" y="364" type="curve" smooth="yes"/>
      <point x="738" y="539"/>
      <point x="597" y="680"/>
      <point x="422" y="680" type="curve" smooth="yes"/>
      <point x="247" y="680"/>
      <point x="106" y="539"/>
      <point x="106" y="364" type="curve" smooth="yes"/>
      <point x="106" y="189"/>
      <point x="247" y="49"/>
      <point x="422" y="49" type="curve" smooth="yes"/>
      <point x="597" y="49"/>
      <point x="738" y="189"/>
    </contour>
    <contour>
      <point x="613" y="439" type="curve" smooth="yes"/>
      <point x="613" y="370"/>
      <point x="557" y="299"/>
      <point x="471" y="299" type="curve" smooth="yes"/>
      <point x="398" y="299" type="line"/>
      <point x="398" y="146" type="line"/>
      <point x="298" y="146" type="line"/>
      <point x="298" y="584" type="line"/>
      <point x="465" y="584" type="line" smooth="yes"/>
      <point x="556" y="584"/>
      <point x="613" y="515"/>
    </contour>
    <contour>
      <point x="511" y="443" type="curve" smooth="yes"/>
      <point x="511" y="483"/>
      <point x="484" y="498"/>
      <point x="451" y="498" type="curve" smooth="yes"/>
      <point x="398" y="498" type="line"/>
      <point x="398" y="385" type="line"/>
      <point x="454" y="385" type="line" smooth="yes"/>
      <point x="485" y="385"/>
      <point x="511" y="402"/>
    </contour>
  </outline>
</glyph>
<glyph name="trademark" format="1">
  <advance width="819"/>
  <unicode hex="2122"/>
  <outline>
    <contour>
      <point x="771" y="292" type="line"/>
      <point x="691" y="292" type="line"/>
      <point x="691" y="603" type="line"/>
      <point x="564" y="416" type="line"/>
      <point x="530" y="416" type="line"/>
      <point x="401" y="597" type="line"/>
      <point x="401" y="292" type="line"/>
      <point x="321" y="292" type="line"/>
      <point x="321" y="730" type="line"/>
      <point x="392" y="730" type="line"/>
      <point x="547" y="516" type="line"/>
      <point x="697" y="730" type="line"/>
      <point x="771" y="730" type="line"/>
    </contour>
    <contour>
      <point x="274" y="654" type="line"/>
      <point x="191" y="654" type="line"/>
      <point x="191" y="292" type="line"/>
      <point x="111" y="292" type="line"/>
      <point x="111" y="654" type="line"/>
      <point x="32" y="654" type="line"/>
      <point x="32" y="730" type="line"/>
      <point x="274" y="730" type="line"/>
    </contour>
  </outline>
</glyph>
<glyph name="minus" format="1">
  <advance width="575"/>
  <unicode hex="2212"/>
  <outline>
    <contour>
      <point x="37" y="244" type="line"/>
      <point x="37" y="364" type="line"/>
      <point x="538" y="364" type="line"/>
      <point x="538" y="244" type="line"/>
    </contour>
  </outline>
</glyph>
<glyph name="radical" format="1">
  <advance width="582"/>
  <unicode hex="221A"/>
  <outline>
    <contour>
      <point x="567" y="730" type="line"/>
      <point x="329" y="0" type="line"/>
      <point x="178" y="0" type="line"/>
      <point x="15" y="374" type="line"/>
      <point x="177" y="374" type="line"/>
      <point x="241" y="224" type="line" smooth="yes"/>
      <point x="248" y="207"/>
      <point x="254" y="184"/>
      <point x="254" y="184" type="curve"/>
      <point x="254" y="184"/>
      <point x="259" y="208"/>
      <point x="264" y="224" type="curve" smooth="yes"/>
      <point x="411" y="730" type="line"/>
    </contour>
  </outline>
</glyph>
<glyph name="apple" format="1">
  <advance width="730"/>
  <unicode hex="F8FF"/>
  <outline>
    <contour>
      <point x="490" y="608" type="line"/>
      <point x="240" y="608" type="line"/>
      <point x="240" y="730" type="line"/>
      <point x="490" y="730" type="line"/>
    </contour>
    <contour>
      <point x="730" y="240" type="line"/>
      <point x="608" y="240" type="line"/>
      <point x="608" y="490" type="line"/>
      <point x="730" y="490" type="line"/>
    </contour>
    <contour>
      <point x="490" y="240" type="line"/>
      <point x="240" y="240" type="line"/>
      <point x="240" y="490" type="line"/>
      <point x="490" y="490" type="line"/>
    </contour>
    <contour>
      <point x="122" y="240" type="line"/>
      <point x="0" y="240" type="line"/>
      <point x="0" y="490" type="line"/>
      <point x="122" y="490" type="line"/>
    </contour>
    <contour>
      <point x="490" y="0" type="line"/>
      <point x="240" y="0" type="line"/>
      <point x="240" y="122" type="line"/>
      <point x="490" y="122" type="line"/>
    </contour>
  </outline>
</glyph>
<glyph name="f_f_i" format="1">
  <advance width="844"/>
  <unicode hex="FB03"/>
  <outline>
    <contour>
      <point x="794" y="501" type="line"/>
      <point x="639" y="501" type="line"/>
      <point x="639" y="643" type="line"/>
      <point x="794" y="643" type="line"/>
    </contour>
    <contour>
      <point x="568" y="316" type="line"/>
      <point x="511" y="316" type="line"/>
      <point x="511" y="0" type="line"/>
      <point x="356" y="0" type="line"/>
      <point x="356" y="316" type="line"/>
      <point x="302" y="316" type="line"/>
      <point x="302" y="431" type="line"/>
      <point x="356" y="431" type="line"/>
      <point x="356" y="609" type="line" smooth="yes"/>
      <point x="356" y="689"/>
      <point x="399" y="742"/>
      <point x="482" y="742" type="curve" smooth="yes"/>
      <point x="563" y="742" type="line"/>
      <point x="563" y="612" type="line"/>
      <point x="538" y="612" type="line" smooth="yes"/>
      <point x="517" y="612"/>
      <point x="511" y="582"/>
      <point x="511" y="563" type="curve" smooth="yes"/>
      <point x="511" y="431" type="line"/>
      <point x="568" y="431" type="line"/>
    </contour>
    <contour>
      <point x="283" y="316" type="line"/>
      <point x="226" y="316" type="line"/>
      <point x="226" y="0" type="line"/>
      <point x="71" y="0" type="line"/>
      <point x="71" y="316" type="line"/>
      <point x="17" y="316" type="line"/>
      <point x="17" y="431" type="line"/>
      <point x="71" y="431" type="line"/>
      <point x="71" y="609" type="line" smooth="yes"/>
      <point x="71" y="689"/>
      <point x="114" y="742"/>
      <point x="197" y="742" type="curve" smooth="yes"/>
      <point x="278" y="742" type="line"/>
      <point x="278" y="612" type="line"/>
      <point x="253" y="612" type="line" smooth="yes"/>
      <point x="232" y="612"/>
      <point x="226" y="582"/>
      <point x="226" y="563" type="curve" smooth="yes"/>
      <point x="226" y="431" type="line"/>
      <point x="283" y="431" type="line"/>
    </contour>
    <contour>
      <point x="794" y="0" type="line"/>
      <point x="639" y="0" type="line"/>
      <point x="639" y="431" type="line"/>
      <point x="794" y="431" type="line"/>
    </contour>
  </outline>
</glyph>
<glyph name="bullet" format="1">
  <advance width="382"/>
  <outline>
    <contour>
      <point x="358" y="380" type="curve" smooth="yes"/>
      <point x="358" y="287"/>
      <point x="283" y="212"/>
      <point x="191" y="212" type="curve" smooth="yes"/>
      <point x="100" y="212"/>
      <point x="25" y="287"/>
      <point x="25" y="380" type="curve" smooth="yes"/>
      <point x="25" y="470"/>
      <point x="100" y="545"/>
      <point x="191" y="545" type="curve" smooth="yes"/>
      <point x="283" y="545"/>
      <point x="358" y="470"/>
    </contour>
  </outline>
</glyph>
<glyph name="f_l" format="1">
  <advance width="559"/>
  <outline>
    <contour>
      <point x="283" y="316" type="line"/>
      <point x="226" y="316" type="line"/>
      <point x="226" y="0" type="line"/>
      <point x="71" y="0" type="line"/>
      <point x="71" y="316" type="line"/>
      <point x="17" y="316" type="line"/>
      <point x="17" y="431" type="line"/>
      <point x="71" y="431" type="line"/>
      <point x="71" y="609" type="line" smooth="yes"/>
      <point x="71" y="689"/>
      <point x="114" y="742"/>
      <point x="197" y="742" type="curve" smooth="yes"/>
      <point x="278" y="742" type="line"/>
      <point x="278" y="612" type="line"/>
      <point x="253" y="612" type="line" smooth="yes"/>
      <point x="232" y="612"/>
      <point x="226" y="582"/>
      <point x="226" y="563" type="curve" smooth="yes"/>
      <point x="226" y="431" type="line"/>
      <point x="283" y="431" type="line"/>
    </contour>
    <contour>
      <point x="509" y="0" type="line"/>
      <point x="354" y="0" type="line"/>
      <point x="354" y="730" type="line"/>
      <point x="509" y="730" type="line"/>
    </contour>
  </outline>
</glyph>
<glyph name="macron" format="1">
  <advance width="500"/>
  <outline>
    <contour>
      <point x="400" y="525" type="line"/>
      <point x="100" y="525" type="line"/>
      <point x="100" y="591" type="line"/>
      <point x="400" y="591" type="line"/>
    </contour>
  </outline>
</glyph>
<glyph name="onesuperior" format="1">
  <advance width="328"/>
  <outline>
    <contour>
      <point x="119" y="279" type="line"/>
      <point x="119" y="555" type="line"/>
      <point x="104" y="541"/>
      <point x="75" y="532"/>
      <point x="43" y="530" type="curve"/>
      <point x="43" y="651" type="line"/>
      <point x="102" y="659"/>
      <point x="125" y="670"/>
      <point x="153" y="729" type="curve"/>
      <point x="258" y="729" type="line"/>
      <point x="258" y="279" type="line"/>
    </contour>
  </outline>
</glyph>
<glyph name="registered" format="1">
  <advance width="844"/>
  <outline>
    <contour>
      <point x="799" y="365" type="curve" smooth="yes"/>
      <point x="799" y="157"/>
      <point x="630" y="-12"/>
      <point x="422" y="-12" type="curve" smooth="yes"/>
      <point x="214" y="-12"/>
      <point x="45" y="157"/>
      <point x="45" y="365" type="curve" smooth="yes"/>
      <point x="45" y="573"/>
      <point x="214" y="742"/>
      <point x="422" y="742" type="curve" smooth="yes"/>
      <point x="630" y="742"/>
      <point x="799" y="573"/>
    </contour>
    <contour>
      <point x="738" y="364" type="curve" smooth="yes"/>
      <point x="738" y="539"/>
      <point x="597" y="680"/>
      <point x="422" y="680" type="curve" smooth="yes"/>
      <point x="247" y="680"/>
      <point x="106" y="539"/>
      <point x="106" y="364" type="curve" smooth="yes"/>
      <point x="106" y="189"/>
      <point x="247" y="49"/>
      <point x="422" y="49" type="curve" smooth="yes"/>
      <point x="597" y="49"/>
      <point x="738" y="189"/>
    </contour>
    <contour>
      <point x="614" y="155" type="line"/>
      <point x="499" y="155" type="line"/>
      <point x="380" y="345" type="line"/>
      <point x="380" y="155" type="line"/>
      <point x="280" y="155" type="line"/>
      <point x="280" y="593" type="line"/>
      <point x="452" y="593" type="line" smooth="yes"/>
      <point x="533" y="593"/>
      <point x="592" y="535"/>
      <point x="592" y="464" type="curve" smooth="yes"/>
      <point x="592" y="394"/>
      <point x="552" y="347"/>
      <point x="492" y="337" type="curve"/>
    </contour>
    <contour>
      <point x="490" y="461" type="curve" smooth="yes"/>
      <point x="490" y="491"/>
      <point x="466" y="510"/>
      <point x="434" y="510" type="curve" smooth="yes"/>
      <point x="380" y="510" type="line"/>
      <point x="380" y="401" type="line"/>
      <point x="432" y="401" type="line" smooth="yes"/>
      <point x="466" y="401"/>
      <point x="490" y="423"/>
    </contour>
  </outline>
</glyph>
<glyph name="threesuperior" format="1">
  <advance width="423"/>
  <outline>
    <contour>
      <point x="381" y="413" type="curve" smooth="yes"/>
      <point x="381" y="333"/>
      <point x="323" y="264"/>
      <point x="197" y="264" type="curve" smooth="yes"/>
      <point x="140" y="264"/>
      <point x="77" y="286"/>
      <point x="46" y="318" type="curve"/>
      <point x="109" y="408" type="line"/>
      <point x="131" y="388"/>
      <point x="162" y="374"/>
      <point x="197" y="374" type="curve" smooth="yes"/>
      <point x="230" y="374"/>
      <point x="256" y="392"/>
      <point x="256" y="423" type="curve" smooth="yes"/>
      <point x="256" y="456"/>
      <point x="232" y="467"/>
      <point x="188" y="467" type="curve" smooth="yes"/>
      <point x="165" y="467" type="line"/>
      <point x="165" y="552" type="line"/>
      <point x="197" y="552" type="line" smooth="yes"/>
      <point x="230" y="552"/>
      <point x="247" y="562"/>
      <point x="247" y="594" type="curve" smooth="yes"/>
      <point x="247" y="617"/>
      <point x="224" y="631"/>
      <point x="197" y="631" type="curve" smooth="yes"/>
      <point x="165" y="631"/>
      <point x="145" y="626"/>
      <point x="124" y="608" type="curve"/>
      <point x="66" y="701" type="line"/>
      <point x="104" y="731"/>
      <point x="156" y="741"/>
      <point x="204" y="741" type="curve" smooth="yes"/>
      <point x="298" y="741"/>
      <point x="372" y="682"/>
      <point x="372" y="603" type="curve" smooth="yes"/>
      <point x="372" y="560"/>
      <point x="340" y="525"/>
      <point x="315" y="515" type="curve"/>
      <point x="348" y="504"/>
      <point x="381" y="466"/>
    </contour>
  </outline>
</glyph>
